<?xml version="1.0" encoding="UTF-8"?>
<svg width="100px" height="80px" viewBox="0 0 100 80" version="1.1" xmlns="http://www.w3.org/2000/svg" xmlns:xlink="http://www.w3.org/1999/xlink">
    <!-- Generator: Sketch 41.2 (35397) - http://www.bohemiancoding.com/sketch -->
    <title>Adventure</title>
    <desc>Created with Sketch.</desc>
    <defs></defs>
    <g id="Page-1" stroke="none" stroke-width="1" fill="none" fill-rule="evenodd">
        <g id="Desktop-HD" transform="translate(-779.000000, -5410.000000)" fill="#FE5621">
            <g id="interests" transform="translate(320.000000, 5375.000000)">
                <g id="interests-Row">
                    <g id="interests-Tabloid-Copy-2" transform="translate(433.333333, 0.000000)">
                        <g id="Adventure" transform="translate(26.000000, 35.000000)">
                            <g id="adventure2" transform="translate(69.000000, 50.000000)">
                                <g id="Artboard-1-Copy-88">
                                    <g id="Group">
                                        <g id="Shape">
                                            <path d="M15,28.5 C7.555875,28.5 1.5,22.444125 1.5,15 C1.5,7.555875 7.555875,1.5 15,1.5 C22.444125,1.5 28.5,7.555875 28.5,15 C28.5,22.444125 22.444125,28.5 15,28.5 M15,0 C6.7155,0 0,6.715875 0,15 C0,23.284125 6.7155,30 15,30 C23.2845,30 30,23.284125 30,15 C30,6.715875 23.2845,0 15,0"></path>
                                            <path d="M15,14.25 C15.413625,14.25 15.75,14.586375 15.75,15 C15.75,15.413625 15.413625,15.75 15,15.75 C14.586375,15.75 14.25,15.413625 14.25,15 C14.25,14.586375 14.586375,14.25 15,14.25 M12.75,15 C12.75,16.242375 13.757625,17.25 15,17.25 C16.242375,17.25 17.25,16.242375 17.25,15 C17.25,13.757625 16.242375,12.75 15,12.75 C13.757625,12.75 12.75,13.757625 12.75,15"></path>
                                            <path d="M17.6625375,16.4794875 C17.4866625,16.8897375 16.8896625,17.4867375 16.4797875,17.6622375 L9.2310375,20.7691125 L12.3375375,13.5203625 C12.5134125,13.1101125 13.1104125,12.5131125 13.5202875,12.3376125 L20.7690375,9.2307375 L17.6625375,16.4794875 Z M22.7419125,6.8442375 C22.6057875,6.8442375 22.4389125,6.8832375 22.2457875,6.9661125 L12.9292875,10.9587375 C12.1654125,11.2861125 11.2856625,12.1673625 10.9590375,12.9293625 L6.9660375,22.2454875 C6.7215375,22.8158625 6.8569125,23.1559875 7.2577875,23.1559875 C7.3942875,23.1559875 7.5611625,23.1166125 7.7542875,23.0341125 L17.0704125,19.0411125 C17.8342875,18.7137375 18.7144125,17.8324875 19.0410375,17.0708625 L23.0340375,7.7543625 C23.2785375,7.1839875 23.1431625,6.8442375 22.7419125,6.8442375 L22.7419125,6.8442375 Z"></path>
                                            <path d="M15,4.5 C15.417,4.5 15.75,4.164375 15.75,3.75075 L15.75,2.99925 C15.75,2.58675 15.414,2.25 15,2.25 C14.583,2.25 14.25,2.585625 14.25,2.99925 L14.25,3.75075 C14.25,4.16325 14.586,4.5 15,4.5"></path>
                                            <path d="M15,25.5 C14.583,25.5 14.25,25.835625 14.25,26.24925 L14.25,27.00075 C14.25,27.41325 14.586,27.75 15,27.75 C15.417,27.75 15.75,27.414375 15.75,27.00075 L15.75,26.24925 C15.75,25.83675 15.414,25.5 15,25.5"></path>
                                            <path d="M3.75075,14.25 L2.99925,14.25 C2.58675,14.25 2.25,14.586 2.25,15 C2.25,15.417 2.585625,15.75 2.99925,15.75 L3.75075,15.75 C4.16325,15.75 4.5,15.414 4.5,15 C4.5,14.583 4.16475,14.25 3.75075,14.25"></path>
                                            <path d="M27.00075,14.25 L26.24925,14.25 C25.83675,14.25 25.5,14.586 25.5,15 C25.5,15.417 25.835625,15.75 26.24925,15.75 L27.00075,15.75 C27.41325,15.75 27.75,15.414 27.75,15 C27.75,14.583 27.41475,14.25 27.00075,14.25"></path>
                                        </g>
                                    </g>
                                </g>
                            </g>
                            <g id="adventure1">
                                <g id="Group">
                                    <g id="Shape">
                                        <path d="M64.9546154,9.59923077 L47.5538462,0.340769231 C47.1592308,0.130769231 46.6946154,0.102307692 46.2792308,0.262307692 L26.5076923,7.85692308 L1.92153846,7.85692308 C1.07230769,7.85692308 0.383076923,8.54615385 0.383076923,9.39538462 L0.383076923,55.8676923 C0.383076923,56.7169231 1.07230769,57.4061538 1.92153846,57.4061538 L26.7938462,57.4061538 C26.9669231,57.4061538 27.1384615,57.3769231 27.3015385,57.32 L46.4615385,50.6253846 C46.5830769,50.6561538 46.7084615,50.6776923 46.8392308,50.6776923 C46.87,50.6776923 46.8984615,50.6707692 46.9284615,50.6684615 L63.4992308,59.6523077 C63.7284615,59.7761538 63.98,59.8384615 64.2323077,59.8384615 C64.5046154,59.8384615 64.7769231,59.7661538 65.0192308,59.6215385 C65.4853846,59.3446154 65.7707692,58.8423077 65.7707692,58.3 L65.7707692,10.9569231 C65.7707692,10.3884615 65.4569231,9.86615385 64.9546154,9.59923077 Z M28.2138462,22.2053846 C28.3507692,22.1892308 28.4838462,22.17 28.6246154,22.16 C29.4138462,22.1015385 30.1215385,22.0961538 30.7515385,22.1423077 C31.1753846,22.17 31.5430769,21.8538462 31.5730769,21.4292308 C31.6030769,21.0053846 31.2838462,20.6376923 30.86,20.6076923 C30.1638462,20.5584615 29.3853846,20.5615385 28.5123077,20.6253846 C28.41,20.6330769 28.3138462,20.6484615 28.2138462,20.6584615 L28.2138462,10.4984615 L45.3007692,3.93461538 L45.3007692,32.5 C45.1476923,32.6984615 44.9961538,32.89 44.8446154,33.0692308 C44.5707692,33.3930769 44.6107692,33.8784615 44.9353846,34.1530769 C45.0430769,34.2446154 45.1707692,34.2892308 45.3007692,34.3123077 L45.3007692,47.7730769 L28.2138462,53.7430769 L28.2138462,22.2053846 L28.2138462,22.2053846 Z M3.46,10.9346154 L25.1369231,10.9346154 L25.1369231,54.33 L3.46,54.33 L3.46,10.9346154 L3.46,10.9346154 Z M62.6938462,55.7169231 L48.3776923,47.9553846 L48.3776923,30.5569231 C48.3984615,30.4523077 48.4,30.3476923 48.3776923,30.2461538 L48.3776923,4.26384615 L62.6938462,11.8807692 L62.6938462,55.7169231 Z"></path>
                                        <path d="M9.88153846,22.5161538 C11.7723077,22.5161538 13.3115385,20.9776923 13.3115385,19.0853846 C13.3115385,18.6230769 13.2169231,18.1830769 13.0507692,17.78 C13.1838462,17.7584615 13.3146154,17.7153846 13.4246154,17.6215385 C14.0046154,17.1323077 14.9469231,17.45 15.73,18.3246154 C15.8823077,18.4938462 16.0923077,18.5807692 16.3030769,18.5807692 C16.4861538,18.5807692 16.6692308,18.5161538 16.8161538,18.3846154 C17.1323077,18.1007692 17.1592308,17.6146154 16.8753846,17.2984615 C16.0384615,16.3653846 15.0415385,15.8515385 14.0669231,15.8515385 C13.4584615,15.8515385 12.8938462,16.0576923 12.4323077,16.4469231 C12.3669231,16.5023077 12.3215385,16.5707692 12.2792308,16.6392308 C11.66,16.0323077 10.8146154,15.6553846 9.88153846,15.6553846 C7.98923077,15.6553846 6.45,17.1938462 6.45,19.0861538 C6.45,20.9784615 7.98923077,22.5161538 9.88153846,22.5161538 Z M9.88153846,17.1930769 C10.9246154,17.1930769 11.7730769,18.0423077 11.7730769,19.0853846 C11.7730769,20.1284615 10.9246154,20.9776923 9.88153846,20.9776923 C8.83769231,20.9776923 7.98846154,20.1284615 7.98846154,19.0853846 C7.98846154,18.0423077 8.83769231,17.1930769 9.88153846,17.1930769 Z"></path>
                                        <path d="M11.0084615,38.8123077 C11.9369231,37.8269231 12.7976923,36.83 13.5653846,35.8476923 C13.8269231,35.5130769 13.7684615,35.03 13.4338462,34.7676923 C13.0992308,34.5061538 12.6169231,34.5646154 12.3538462,34.8992308 C11.6146154,35.8446154 10.7853846,36.8061538 9.88923077,37.7561538 C9.59769231,38.0653846 9.61230769,38.5523077 9.92153846,38.8438462 C10.07,38.9838462 10.26,39.0530769 10.4492308,39.0530769 C10.6530769,39.0538462 10.8569231,38.9730769 11.0084615,38.8123077 Z"></path>
                                        <path d="M14.8592308,47.7161538 C14.0784615,47.6715385 13.2669231,47.5153846 12.4461538,47.2523077 C12.0761538,47.1338462 11.7269231,47.0023077 11.41,46.8630769 C11.0215385,46.6907692 10.5669231,46.8684615 10.3961538,47.2569231 C10.2246154,47.6461538 10.4007692,48.1 10.79,48.2707692 C11.1561538,48.4315385 11.5553846,48.5823077 11.9769231,48.7176923 C12.9215385,49.02 13.8615385,49.2 14.7707692,49.2523077 C14.7861538,49.2530769 14.8007692,49.2530769 14.8161538,49.2530769 C15.2207692,49.2530769 15.56,48.9369231 15.5838462,48.5284615 C15.6076923,48.1046154 15.2838462,47.7407692 14.8592308,47.7161538 Z"></path>
                                        <path d="M36.1592308,26.6115385 C36.1992308,26.6115385 36.2392308,26.6084615 36.2792308,26.6023077 C36.6992308,26.5369231 36.9853846,26.1430769 36.92,25.7230769 C36.6523077,24.0161538 35.9846154,22.7730769 34.8784615,21.9223077 C34.5423077,21.6630769 34.0592308,21.7269231 33.8,22.0630769 C33.5407692,22.4 33.6038462,22.8823077 33.9407692,23.1415385 C34.73,23.7492308 35.1938462,24.6453846 35.4007692,25.9615385 C35.46,26.3407692 35.7869231,26.6115385 36.1592308,26.6115385 Z"></path>
                                        <path d="M37.0346154,29.7576923 L37.0361538,29.7069231 C37.05,29.2823077 36.7153846,28.9523077 36.2907692,28.9384615 C35.89,28.9084615 35.51,29.2838462 35.4969231,29.7084615 C35.4792308,30.2623077 35.4615385,30.8107692 35.4615385,31.3407692 C35.4615385,32.2953846 35.52,33.0346154 35.6453846,33.6676923 C35.7184615,34.0338462 36.0392308,34.2869231 36.3992308,34.2869231 C36.4484615,34.2869231 36.4992308,34.2823077 36.55,34.2723077 C36.9669231,34.19 37.2376923,33.7846154 37.1546154,33.3676923 C37.0492308,32.8361538 37,32.1915385 37,31.3407692 C37,30.8269231 37.0169231,30.2946154 37.0346154,29.7576923 Z"></path>
                                        <path d="M22.1346154,35.3192308 C22.1792308,35.3192308 22.2238462,35.3153846 22.2692308,35.3076923 C22.6869231,35.2338462 22.9669231,34.8346154 22.8930769,34.4161538 C22.6561538,33.0776923 22.5161538,31.8284615 22.4761538,30.7023077 C22.4607692,30.2776923 22.1253846,29.9476923 21.68,29.9607692 C21.2553846,29.9761538 20.9238462,30.3323077 20.9384615,30.7569231 C20.9815385,31.9538462 21.1292308,33.2746154 21.3784615,34.6838462 C21.4438462,35.0569231 21.7684615,35.3192308 22.1346154,35.3192308 Z"></path>
                                        <path d="M42.1553846,35.2807692 C41.3692308,35.6461538 40.5792308,35.7807692 39.7169231,35.69 C39.44,35.66 39.1846154,35.6115385 38.9561538,35.5453846 C38.5484615,35.4269231 38.1215385,35.6615385 38.0030769,36.07 C37.8846154,36.4776923 38.1192308,36.9046154 38.5276923,37.0230769 C38.8423077,37.1146154 39.1876923,37.1807692 39.5553846,37.22 C39.7815385,37.2438462 40.0038462,37.2553846 40.2223077,37.2553846 C41.11,37.2553846 41.9792308,37.0607692 42.8053846,36.6761538 C43.19,36.4969231 43.3576923,36.0392308 43.1784615,35.6538462 C42.9992308,35.2684615 42.5415385,35.1007692 42.1553846,35.2807692 Z"></path>
                                        <path d="M8.61692308,43.3730769 C8.61692308,42.8376923 8.73153846,42.2576923 8.95923077,41.65 C9.10769231,41.2515385 8.90538462,40.8084615 8.50769231,40.66 C8.10846154,40.5130769 7.66692308,40.7138462 7.51769231,41.1115385 C7.22615385,41.8923077 7.07846154,42.6530769 7.07846154,43.3730769 C7.07846154,44.1192308 7.23769231,44.82 7.55076923,45.4576923 C7.68461538,45.73 7.95769231,45.8876923 8.24153846,45.8876923 C8.35538462,45.8876923 8.47076923,45.8623077 8.58,45.8084615 C8.96153846,45.6215385 9.11846154,45.16 8.93153846,44.7792308 C8.72230769,44.3546154 8.61692308,43.8815385 8.61692308,43.3730769 Z"></path>
                                        <path d="M57.8653846,25.7284615 C57.8207692,26.9223077 57.6053846,28.2738462 57.4007692,29.4392308 C57.3269231,29.8576923 57.6069231,30.2561538 58.0253846,30.33 C58.0707692,30.3376923 58.1153846,30.3415385 58.1592308,30.3415385 C58.5261538,30.3415385 58.85,30.0784615 58.9161538,29.7053846 C59.13,28.4892308 59.3546154,27.0723077 59.4030769,25.7861538 C59.4192308,25.3615385 59.0876923,25.0046154 58.6630769,24.9884615 C58.2469231,24.9723077 57.8815385,25.3038462 57.8653846,25.7284615 Z"></path>
                                        <path d="M54.5976923,21.8969231 C55.0092308,21.7307692 55.4092308,21.6984615 55.8392308,21.7969231 C56.4338462,21.9338462 56.8761538,22.1876923 57.1907692,22.5746154 C57.3430769,22.7615385 57.5646154,22.8584615 57.7876923,22.8584615 C57.9584615,22.8584615 58.13,22.8023077 58.2723077,22.6861538 C58.6015385,22.4184615 58.6523077,21.9338462 58.3838462,21.6038462 C57.8523077,20.95 57.1123077,20.5107692 56.1830769,20.2969231 C55.4523077,20.1276923 54.7207692,20.1876923 54.0215385,20.47 C53.6276923,20.6292308 53.4369231,21.0769231 53.5961538,21.4707692 C53.7561538,21.8653846 54.2046154,22.0584615 54.5976923,21.8969231 Z"></path>
                                        <path d="M17.1630769,28.0715385 C16.7669231,27.9146154 16.3207692,28.1053846 16.1630769,28.5007692 C15.7292308,29.5861538 15.1669231,30.7023077 14.4923077,31.8184615 C14.2723077,32.1823077 14.3884615,32.6546154 14.7523077,32.8753846 C14.8769231,32.9507692 15.0138462,32.9861538 15.15,32.9861538 C15.41,32.9861538 15.6646154,32.8538462 15.8084615,32.6153846 C16.5269231,31.4276923 17.1269231,30.2353846 17.5923077,29.0723077 C17.75,28.6769231 17.5576923,28.2292308 17.1630769,28.0715385 Z"></path>
                                        <path d="M49.1623077,27.7338462 C49.2815385,27.8007692 49.4107692,27.8323077 49.5384615,27.8323077 C49.8076923,27.8323077 50.0684615,27.6907692 50.21,27.44 C50.7976923,26.3938462 51.4823077,25.1946154 52.17,24.2161538 C52.4138462,23.8684615 52.33,23.3884615 51.9823077,23.1446154 C51.6338462,22.9007692 51.1553846,22.9846154 50.9107692,23.3323077 C50.1823077,24.37 49.4746154,25.6076923 48.8676923,26.6869231 C48.66,27.0569231 48.7915385,27.5261538 49.1623077,27.7338462 Z"></path>
                                        <path d="M57.05,37.95 C57.4630769,37.95 57.8046154,37.6223077 57.8184615,37.2061538 C57.8523077,36.1876923 57.9853846,35.0061538 58.2369231,33.4861538 C58.3061538,33.0669231 58.0230769,32.6707692 57.6038462,32.6015385 C57.1830769,32.53 56.7884615,32.8153846 56.7192308,33.2346154 C56.4561538,34.8223077 56.3169231,36.0684615 56.2807692,37.1553846 C56.2669231,37.58 56.5992308,37.9353846 57.0238462,37.95 C57.0323077,37.95 57.0407692,37.95 57.05,37.95 Z"></path>
                                        <path d="M18.6707692,25.2061538 C18.7753846,24.5176923 18.8284615,23.8369231 18.8284615,23.1830769 C18.8284615,22.4730769 18.7669231,21.78 18.6438462,21.1223077 C18.5653846,20.7053846 18.1653846,20.4292308 17.7461538,20.5076923 C17.3292308,20.5861538 17.0538462,20.9876923 17.1315385,21.4053846 C17.2369231,21.9692308 17.2907692,22.5669231 17.29,23.1823077 C17.29,23.7592308 17.2430769,24.3630769 17.15,24.9753846 C17.0861538,25.3953846 17.3746154,25.7876923 17.7953846,25.8515385 C17.8346154,25.8576923 17.8730769,25.86 17.9115385,25.86 C18.2853846,25.86 18.6130769,25.5869231 18.6707692,25.2061538 Z"></path>
                                        <path d="M23.7184615,38.1084615 C23.61,37.6976923 23.1884615,37.4507692 22.7792308,37.56 C22.3684615,37.6676923 22.1223077,38.0884615 22.2307692,38.4992308 L22.4407692,39.2861538 C22.5592308,39.7223077 22.6192308,40.1869231 22.6192308,40.6684615 C22.6192308,41.0838462 22.5746154,41.5107692 22.4861538,41.9384615 C22.4,42.3546154 22.6669231,42.7615385 23.0830769,42.8476923 C23.1361538,42.8584615 23.1884615,42.8638462 23.24,42.8638462 C23.5969231,42.8638462 23.9169231,42.6138462 23.9923077,42.2507692 C24.1023077,41.72 24.1576923,41.1869231 24.1576923,40.6676923 C24.1576923,40.0515385 24.0792308,39.4507692 23.9253846,38.8830769 L23.7184615,38.1084615 Z"></path>
                                        <path d="M20.9976923,45.0492308 C20.26,45.9615385 19.3146154,46.6838462 18.2638462,47.1376923 C17.8738462,47.3069231 17.6946154,47.7592308 17.8630769,48.1492308 C17.9892308,48.4392308 18.2723077,48.6138462 18.5692308,48.6138462 C18.6707692,48.6138462 18.7746154,48.5930769 18.8738462,48.55 C20.1515385,47.9969231 21.2992308,47.1215385 22.1930769,46.0169231 C22.4607692,45.6869231 22.4092308,45.2023077 22.0792308,44.9353846 C21.75,44.6676923 21.2661538,44.7184615 20.9976923,45.0492308 Z"></path>
                                        <path d="M24.21,22.9284615 C23.8969231,22.6407692 23.41,22.6630769 23.1230769,22.9761538 C22.2361538,23.9438462 21.6092308,25.2084615 21.2607692,26.7346154 C21.1661538,27.1492308 21.4253846,27.5615385 21.8392308,27.6561538 C21.8969231,27.6692308 21.9546154,27.6753846 22.0115385,27.6753846 C22.3623077,27.6753846 22.6792308,27.4338462 22.7607692,27.0776923 C23.0492308,25.8153846 23.5523077,24.7853846 24.2569231,24.0161538 C24.5446154,23.7015385 24.5230769,23.2153846 24.21,22.9284615 Z"></path>
                                        <path d="M58.3915385,38.4176923 L56.9069231,39.9007692 L55.4223077,38.4176923 C55.1215385,38.1176923 54.6353846,38.1169231 54.3346154,38.4184615 C54.0346154,38.7192308 54.0346154,39.2061538 54.3353846,39.5061538 L55.8184615,40.9876923 L54.3353846,42.4692308 C54.0346154,42.7692308 54.0346154,43.2561538 54.3346154,43.5569231 C54.4846154,43.7076923 54.6815385,43.7823077 54.8792308,43.7823077 C55.0761538,43.7823077 55.2723077,43.7069231 55.4230769,43.5576923 L56.9076923,42.0746154 L58.3923077,43.5576923 C58.5423077,43.7076923 58.7392308,43.7823077 58.9361538,43.7823077 C59.1330769,43.7823077 59.33,43.7069231 59.4807692,43.5569231 C59.7807692,43.2561538 59.7807692,42.7692308 59.48,42.4692308 L57.9969231,40.9876923 L59.48,39.5061538 C59.7807692,39.2061538 59.7807692,38.7192308 59.4807692,38.4184615 C59.1792308,38.1169231 58.6923077,38.1176923 58.3915385,38.4176923 Z"></path>
                                    </g>
                                </g>
                            </g>
                        </g>
                    </g>
                </g>
            </g>
        </g>
    </g>
</svg>