<?xml version="1.0" encoding="UTF-8"?>
<svg width="107px" height="80px" viewBox="0 0 107 80" version="1.1" xmlns="http://www.w3.org/2000/svg" xmlns:xlink="http://www.w3.org/1999/xlink">
    <!-- Generator: Sketch 41.2 (35397) - http://www.bohemiancoding.com/sketch -->
    <title>Explorer</title>
    <desc>Created with Sketch.</desc>
    <defs></defs>
    <g id="Page-1" stroke="none" stroke-width="1" fill="none" fill-rule="evenodd">
        <g id="Desktop-HD" transform="translate(-558.000000, -5410.000000)" fill="#099E44">
            <g id="interests" transform="translate(320.000000, 5375.000000)">
                <g id="interests-Row">
                    <g id="interests-Tabloid-Copy" transform="translate(216.666667, 0.000000)">
                        <g id="Explorer" transform="translate(22.000000, 35.000000)">
                            <g id="explorer1" transform="translate(59.000000, 48.000000)">
                                <g id="Group">
                                    <path d="M15.6724138,24.5689655 C15.4137931,24.4655172 15.1034483,24.6206897 15,24.8793103 C14.1724138,27.2068966 11.9482759,28.7586207 9.46551724,28.7586207 C6.20689655,28.7586207 3.56896552,26.1206897 3.56896552,22.862069 C3.56896552,21 4.39655172,19.2931034 5.89655172,18.1551724 C6.10344828,18 6.15517241,17.637931 6,17.4310345 C5.84482759,17.2241379 5.48275862,17.1724138 5.27586207,17.3275862 C3.56896552,18.6724138 2.53448276,20.637931 2.53448276,22.8103448 C2.53448276,26.637931 5.63793103,29.7413793 9.46551724,29.7413793 C12.362069,29.7413793 15,27.8793103 15.9827586,25.137931 C16.0862069,24.9827586 15.9310345,24.6724138 15.6724138,24.5689655 Z" id="Shape"></path>
                                    <path d="M45.9310345,19.137931 C44.9482759,17.5862069 43.3965517,16.5 41.5862069,16.137931 C40.2931034,15.8793103 39,15.9827586 37.8103448,16.3965517 L37.1896552,15.1034483 C38.0172414,14.7931034 38.9482759,14.637931 39.9827586,14.637931 L39.9827586,14.637931 C41.3275862,14.637931 42.8275862,15.0517241 44.1206897,15.8275862 C44.3793103,15.9827586 44.6896552,15.8793103 44.8448276,15.6206897 C45,15.362069 44.8965517,15.0517241 44.637931,14.8965517 C43.1896552,14.0689655 41.4827586,13.6034483 39.9827586,13.6034483 L39.9827586,13.6034483 C38.8448276,13.6034483 37.7586207,13.8103448 36.7758621,14.1724138 L35.5344828,11.5344828 C38.2758621,10.5 42.3103448,11.2241379 44.3793103,11.8448276 C44.637931,11.8965517 44.8965517,11.7931034 45,11.5344828 C45.1034483,11.2758621 45,11.0172414 44.7413793,10.862069 L40.137931,8.5862069 L40.0862069,6.36206897 C40.0862069,6.25862069 40.0344828,6.15517241 39.9827586,6.05172414 L35.2758621,0.465517241 C35.1206897,0.310344828 34.9137931,0.25862069 34.7068966,0.310344828 C34.5,0.362068966 34.3448276,0.568965517 34.3448276,0.775862069 L34.2931034,4.18965517 C34.2931034,4.5 34.5,4.70689655 34.8103448,4.70689655 C35.0689655,4.70689655 35.3275862,4.5 35.3275862,4.18965517 L35.3793103,2.17241379 L39.1034483,6.56896552 L39.1551724,8.89655172 C39.1551724,9.10344828 39.2586207,9.25862069 39.4655172,9.36206897 L40.862069,10.0344828 C38.7413793,9.82758621 36.4137931,9.87931034 34.6551724,10.7586207 L34.6551724,10.7586207 L34.6551724,10.7586207 L34.6551724,10.7586207 C31.8103448,12.1034483 30.362069,15.1034483 29.9482759,16.0862069 L28.4482759,16.137931 C28.137931,16.137931 27.9310345,16.3965517 27.9827586,16.7068966 C27.9827586,16.9655172 28.2413793,17.1724138 28.5,17.1724138 L28.5517241,17.1724138 L30.362069,17.0689655 C30.5689655,17.0689655 30.7758621,16.9137931 30.8275862,16.7068966 C30.8275862,16.6551724 32.0689655,13.4482759 34.7068966,11.8965517 L35.9482759,14.5344828 C34.2931034,15.4137931 32.9482759,16.862069 31.9655172,18.8275862 C31.862069,19.0862069 31.9655172,19.3965517 32.2241379,19.5 C32.2758621,19.5517241 32.3793103,19.5517241 32.4310345,19.5517241 C32.637931,19.5517241 32.7931034,19.4482759 32.8965517,19.2413793 C33.7758621,17.4310345 34.9137931,16.1896552 36.362069,15.4137931 L36.9827586,16.7068966 C36.8275862,16.8103448 36.6724138,16.9137931 36.4655172,17.0172414 C34.9137931,18 33.8275862,19.5517241 33.4655172,21.362069 C32.637931,25.0862069 35.0689655,28.8103448 38.7931034,29.5862069 C39.2586207,29.6896552 39.7758621,29.7413793 40.2413793,29.7413793 C43.4482759,29.7413793 46.3448276,27.5172414 47.0172414,24.2586207 C47.3275862,22.5517241 46.9655172,20.6896552 45.9310345,19.137931 Z M45.8793103,24.1551724 C45.5689655,25.7068966 44.637931,27 43.2931034,27.8793103 C41.9482759,28.7586207 40.3965517,29.0172414 38.8448276,28.7068966 C37.2931034,28.3965517 36,27.4655172 35.1206897,26.1206897 C34.2413793,24.7758621 33.9827586,23.2241379 34.2931034,21.6724138 C34.6034483,20.1206897 35.5344828,18.8275862 36.8793103,17.9482759 C36.9827586,17.8448276 37.137931,17.7931034 37.2413793,17.7413793 L38.5344828,20.5344828 C38.637931,20.7413793 38.7931034,20.8448276 39,20.8448276 C39.0517241,20.8448276 39.1551724,20.8448276 39.2068966,20.7931034 C39.4655172,20.6896552 39.5689655,20.3793103 39.4655172,20.1206897 L38.2758621,17.2758621 C39.2586207,16.9137931 40.3448276,16.862069 41.3793103,17.1206897 C42.9310345,17.4310345 44.2241379,18.362069 45.1034483,19.7068966 C45.9310345,21 46.2413793,22.6034483 45.8793103,24.1551724 Z" id="Shape"></path>
                                    <ellipse id="Oval" cx="40.137931" cy="22.7586207" rx="1.03448276" ry="1.03448276"></ellipse>
                                    <ellipse id="Oval" cx="9.25862069" cy="22.7586207" rx="1.03448276" ry="1.03448276"></ellipse>
                                    <path d="M3.31034483,10.7586207 C3.62068966,10.7586207 3.82758621,10.5517241 3.82758621,10.2413793 C3.82758621,9.93103448 3.62068966,9.72413793 3.31034483,9.72413793 L1.24137931,9.72413793 C0.931034483,9.72413793 0.724137931,9.93103448 0.724137931,10.2413793 C0.724137931,10.5517241 0.931034483,10.7586207 1.24137931,10.7586207 L1.9137931,10.7586207 L0.568965517,13.2931034 C0.413793103,13.5517241 0.517241379,13.862069 0.775862069,14.0172414 C0.879310345,14.0689655 0.931034483,14.0689655 1.03448276,14.0689655 C1.24137931,14.0689655 1.39655172,13.9655172 1.5,13.8103448 L3.20689655,10.7586207 L3.31034483,10.7586207 Z" id="Shape"></path>
                                    <path d="M29.9482759,18.5172414 C29.6896552,18.4137931 29.3793103,18.5172414 29.2758621,18.7758621 C29.2758621,18.8275862 27.7758621,22.0344828 27.2586207,23.1724138 C26.8965517,23.8965517 25.6034483,24.1034483 25.1896552,24.1551724 L19.2413793,24.1551724 L11.0172414,18.1551724 C10.8103448,18 10.4482759,18.0517241 10.2931034,18.2586207 C10.137931,18.4655172 10.1896552,18.8275862 10.3965517,18.9827586 L12.7241379,20.6896552 L11.2758621,21.2586207 C11.0172414,21.362069 10.862069,21.6724138 10.9655172,21.9310345 C11.0689655,22.137931 11.2241379,22.2413793 11.4310345,22.2413793 C11.4827586,22.2413793 11.5344828,22.2413793 11.637931,22.1896552 L13.7068966,21.362069 L18.7241379,24.9827586 C18.8275862,25.0344828 18.9310345,25.0862069 19.0344828,25.0862069 L20.8965517,25.0862069 L25.137931,25.0862069 C25.3965517,25.0862069 27.4655172,24.8793103 28.137931,23.5344828 C28.7068966,22.3965517 30.1551724,19.137931 30.1551724,19.0862069 C30.3103448,18.9310345 30.2068966,18.6206897 29.9482759,18.5172414 Z" id="Shape"></path>
                                    <path d="M12.5689655,7.55172414 C14.4310345,7.86206897 16.5,8.22413793 16.862069,8.32758621 C17.0689655,8.43103448 17.2241379,8.79310345 17.4310345,9.36206897 C17.5344828,9.62068966 17.637931,9.93103448 17.7931034,10.2931034 C18.3103448,11.4827586 20.4827586,11.7413793 21.7241379,11.7413793 C22.137931,11.7413793 22.5,11.6896552 22.6034483,11.6896552 C24.2068966,11.2241379 25.4482759,9.56896552 25.7586207,9.15517241 L27.6724138,7.81034483 L30.7758621,8.84482759 C30.9310345,8.89655172 31.0862069,8.89655172 31.2413793,8.79310345 L32.8965517,7.65517241 L34.7586207,8.06896552 C35.0172414,8.12068966 35.3275862,7.96551724 35.3793103,7.65517241 C35.4310345,7.39655172 35.2758621,7.0862069 34.9655172,7.03448276 L32.8965517,6.56896552 C32.7413793,6.51724138 32.5862069,6.56896552 32.4827586,6.67241379 L30.7758621,7.75862069 L27.6724138,6.72413793 C27.5172414,6.67241379 27.362069,6.67241379 27.2068966,6.77586207 L25.0344828,8.32758621 C24.9827586,8.37931034 24.9310345,8.43103448 24.8793103,8.48275862 C24.5689655,9 23.4310345,10.3448276 22.2931034,10.6551724 C21.7758621,10.7586207 19.0344828,10.6034483 18.7241379,9.87931034 C18.5689655,9.56896552 18.4655172,9.25862069 18.4137931,9 C18.1551724,8.22413793 17.9482759,7.60344828 17.3275862,7.34482759 C16.7068966,7.0862069 13.4482759,6.56896552 12.8275862,6.46551724 C12.5689655,6.4137931 12.2586207,6.62068966 12.2586207,6.87931034 C12.1034483,7.24137931 12.3103448,7.5 12.5689655,7.55172414 Z" id="Shape"></path>
                                    <path d="M27.362069,4.70689655 L30.7758621,3.98275862 L31.7586207,5.84482759 C31.862069,6 32.0172414,6.10344828 32.2241379,6.10344828 C32.3275862,6.10344828 32.3793103,6.10344828 32.4827586,6.05172414 C32.7413793,5.89655172 32.8448276,5.5862069 32.6896552,5.32758621 L31.5517241,3.15517241 C31.4482759,2.94827586 31.1896552,2.84482759 30.9827586,2.89655172 L29.637931,3.20689655 L29.637931,0.724137931 C29.637931,0.413793103 29.4310345,0.206896552 29.1206897,0.206896552 C28.8103448,0.206896552 28.6034483,0.413793103 28.6034483,0.724137931 L28.6034483,3.4137931 L27.2068966,3.72413793 C26.9482759,3.77586207 26.7413793,4.03448276 26.7931034,4.34482759 C26.8448276,4.65517241 27.1034483,4.75862069 27.362069,4.70689655 Z" id="Shape"></path>
                                    <path d="M2.17241379,7.55172414 L10.0344828,7.55172414 C10.6551724,7.55172414 11.1724138,7.03448276 11.1724138,6.4137931 L11.1724138,1.96551724 C11.1724138,1.34482759 10.6551724,0.827586207 10.0344828,0.827586207 L2.17241379,0.827586207 C1.55172414,0.827586207 1.03448276,1.34482759 1.03448276,1.96551724 L1.03448276,6.4137931 C1.03448276,7.03448276 1.55172414,7.55172414 2.17241379,7.55172414 Z M2.06896552,1.96551724 C2.06896552,1.9137931 2.12068966,1.86206897 2.17241379,1.86206897 L10.0344828,1.86206897 C10.0862069,1.86206897 10.137931,1.9137931 10.137931,1.96551724 L10.137931,6.4137931 C10.137931,6.46551724 10.0862069,6.51724138 10.0344828,6.51724138 L2.17241379,6.51724138 C2.12068966,6.51724138 2.06896552,6.46551724 2.06896552,6.4137931 L2.06896552,1.96551724 L2.06896552,1.96551724 Z" id="Shape"></path>
                                    <path d="M13.8103448,17.4310345 C14.1724138,17.4310345 14.5344828,17.3275862 14.8448276,17.0689655 C15.2068966,16.8103448 15.4655172,16.3965517 15.5172414,15.9310345 L16.137931,11.637931 C16.1896552,11.1724138 16.0862069,10.7068966 15.8275862,10.3448276 C15.5689655,9.98275862 15.1551724,9.72413793 14.6896552,9.67241379 L6.56896552,8.53448276 C6.10344828,8.48275862 5.63793103,8.5862069 5.27586207,8.84482759 C4.9137931,9.10344828 4.65517241,9.51724138 4.60344828,9.98275862 L3.98275862,14.2758621 C3.93103448,14.7413793 4.03448276,15.2068966 4.29310345,15.5689655 C4.55172414,15.9310345 4.96551724,16.1896552 5.43103448,16.2413793 L13.5517241,17.3793103 C13.6551724,17.4310345 13.7068966,17.4310345 13.8103448,17.4310345 Z M5.12068966,14.9482759 C5.01724138,14.7931034 4.96551724,14.637931 4.96551724,14.4310345 L5.5862069,10.137931 C5.5862069,9.98275862 5.68965517,9.77586207 5.84482759,9.67241379 C5.94827586,9.56896552 6.10344828,9.51724138 6.25862069,9.51724138 L6.36206897,9.51724138 L14.4827586,10.7068966 C14.637931,10.7068966 14.8448276,10.8103448 14.9482759,10.9655172 C15.0517241,11.1206897 15.1034483,11.2758621 15.1034483,11.4827586 L14.4827586,15.7758621 C14.4827586,15.9310345 14.3793103,16.137931 14.2241379,16.2413793 C14.0689655,16.3448276 13.9137931,16.3965517 13.7068966,16.3965517 L5.5862069,15.2586207 C5.43103448,15.2068966 5.22413793,15.1034483 5.12068966,14.9482759 Z" id="Shape"></path>
                                    <path d="M21.4137931,19.8103448 L17.2758621,16.2931034 C17.0689655,16.0862069 16.7068966,16.137931 16.5517241,16.3448276 C16.3965517,16.5517241 16.3965517,16.9137931 16.6034483,17.0689655 L20.8965517,20.6896552 C21,20.7931034 21.1034483,20.7931034 21.2068966,20.7931034 L25.4482759,20.7931034 C25.7586207,20.7931034 25.9655172,20.5862069 25.9655172,20.2758621 C25.9655172,19.9655172 25.7586207,19.7586207 25.4482759,19.7586207 L21.4137931,19.8103448 L21.4137931,19.8103448 Z" id="Shape"></path>
                                </g>
                            </g>
                            <g id="explorer2">
                                <g id="Group">
                                    <path d="M1.87654321,28.4444444 L1.87654321,71.8024691 C1.87654321,76.1481481 5.43209877,79.7037037 9.77777778,79.7037037 L44.6419753,79.7037037 C48.9876543,79.7037037 52.5432099,76.1481481 52.5432099,71.8024691 L52.5432099,28.4444444 C52.5432099,26.6666667 51.9506173,24.9876543 50.962963,23.5061728 C53.037037,19.7530864 54.2222222,15.5061728 54.2222222,10.962963 L54.2222222,10.0740741 C54.2222222,9.48148148 53.8271605,9.08641975 53.2345679,9.08641975 L36.2469136,9.08641975 C36.0493827,4.24691358 32.0987654,0.296296296 27.1604938,0.296296296 C22.2222222,0.296296296 18.2716049,4.24691358 18.0740741,9.08641975 L1.08641975,9.08641975 C0.49382716,9.08641975 0.0987654321,9.48148148 0.0987654321,10.0740741 L0.0987654321,10.962963 C0.0987654321,15.5061728 1.28395062,19.8518519 3.35802469,23.5061728 C2.37037037,24.9876543 1.87654321,26.6666667 1.87654321,28.4444444 Z M27.1604938,2.17283951 C31.0123457,2.17283951 34.0740741,5.2345679 34.2716049,8.98765432 L20.0493827,8.98765432 C20.2469136,5.2345679 23.4074074,2.17283951 27.1604938,2.17283951 Z M44.6419753,77.7283951 L9.77777778,77.7283951 C6.51851852,77.7283951 3.85185185,75.0617284 3.85185185,71.8024691 L3.85185185,70.4197531 L50.6666667,70.4197531 L50.6666667,71.8024691 C50.5679012,75.0617284 47.9012346,77.7283951 44.6419753,77.7283951 Z M50.5679012,28.4444444 L50.5679012,68.4444444 L3.85185185,68.4444444 L3.85185185,28.4444444 C3.85185185,27.3580247 4.14814815,26.3703704 4.64197531,25.4814815 C6.41975309,28.0493827 8.59259259,30.3209877 11.0617284,32.0987654 L11.0617284,37.037037 C9.67901235,37.4320988 8.69135802,38.7160494 8.69135802,40.2962963 C8.69135802,42.1728395 10.1728395,43.654321 12.0493827,43.654321 C13.9259259,43.654321 15.4074074,42.1728395 15.4074074,40.2962963 C15.4074074,38.8148148 14.4197531,37.5308642 13.037037,37.037037 L13.037037,33.382716 C16.8888889,35.654321 21.3333333,36.9382716 26.0740741,36.9382716 L28.4444444,36.9382716 C33.0864198,36.9382716 37.4320988,35.7530864 41.1851852,33.5802469 L41.1851852,37.037037 C39.8024691,37.4320988 38.8148148,38.7160494 38.8148148,40.2962963 C38.8148148,42.1728395 40.2962963,43.654321 42.1728395,43.654321 C44.0493827,43.654321 45.5308642,42.1728395 45.5308642,40.2962963 C45.5308642,38.8148148 44.5432099,37.5308642 43.1604938,37.037037 L43.1604938,32.2962963 C45.8271605,30.4197531 48.0987654,28.1481481 49.8765432,25.4814815 C50.2716049,26.3703704 50.5679012,27.3580247 50.5679012,28.4444444 Z M12.0493827,38.8148148 C12.8395062,38.8148148 13.4320988,39.4074074 13.4320988,40.1975309 C13.4320988,40.9876543 12.8395062,41.5802469 12.0493827,41.5802469 C11.2592593,41.5802469 10.6666667,40.9876543 10.6666667,40.1975309 C10.6666667,39.4074074 11.2592593,38.8148148 12.0493827,38.8148148 Z M41.1851852,11.0617284 L41.1851852,31.2098765 C37.5308642,33.5802469 33.0864198,34.8641975 28.4444444,34.8641975 L26.0740741,34.8641975 C21.2345679,34.8641975 16.7901235,33.4814815 13.037037,31.0123457 L13.037037,11.0617284 L41.1851852,11.0617284 Z M42.1728395,38.8148148 C42.962963,38.8148148 43.5555556,39.4074074 43.5555556,40.1975309 C43.5555556,40.9876543 42.962963,41.5802469 42.1728395,41.5802469 C41.382716,41.5802469 40.7901235,40.9876543 40.7901235,40.1975309 C40.7901235,39.4074074 41.382716,38.8148148 42.1728395,38.8148148 Z M43.1604938,29.8271605 L43.1604938,11.0617284 L52.345679,11.0617284 C52.2469136,18.6666667 48.691358,25.382716 43.1604938,29.8271605 Z M11.0617284,11.0617284 L11.0617284,29.6296296 C5.62962963,25.2839506 2.17283951,18.5679012 2.17283951,11.0617284 L11.0617284,11.0617284 Z" id="Shape"></path>
                                    <path d="M45.2345679,45.1358025 L9.18518519,45.1358025 C8.59259259,45.1358025 8.19753086,45.5308642 8.19753086,46.1234568 L8.19753086,58.962963 C8.19753086,61.9259259 10.2716049,64.2962963 12.7407407,64.2962963 L41.7777778,64.2962963 C44.2469136,64.2962963 46.3209877,61.9259259 46.3209877,58.962963 L46.3209877,46.1234568 C46.2222222,45.6296296 45.8271605,45.1358025 45.2345679,45.1358025 Z M44.2469136,47.1111111 C43.7530864,50.962963 40.4938272,53.9259259 36.5432099,53.9259259 L28.2469136,53.9259259 L28.2469136,51.9506173 C28.2469136,51.3580247 27.8518519,50.962963 27.2592593,50.962963 C26.6666667,50.962963 26.2716049,51.3580247 26.2716049,51.9506173 L26.2716049,53.9259259 L17.9753086,53.9259259 C14.0246914,53.9259259 10.7654321,50.962963 10.2716049,47.1111111 L44.2469136,47.1111111 Z M44.2469136,58.962963 C44.2469136,60.8395062 43.0617284,62.3209877 41.6790123,62.3209877 L12.7407407,62.3209877 C11.3580247,62.3209877 10.1728395,60.8395062 10.1728395,58.962963 L10.1728395,52.0493827 C11.9506173,54.4197531 14.8148148,55.9012346 17.9753086,55.9012346 L26.2716049,55.9012346 L26.2716049,58.2716049 C26.2716049,58.8641975 26.6666667,59.2592593 27.2592593,59.2592593 C27.8518519,59.2592593 28.2469136,58.8641975 28.2469136,58.2716049 L28.2469136,55.9012346 L36.5432099,55.9012346 C39.7037037,55.9012346 42.5679012,54.3209877 44.345679,52.0493827 L44.345679,58.962963 L44.2469136,58.962963 Z" id="Shape"></path>
                                    <path d="M20.9382716,22.2222222 L26.4691358,27.7530864 C26.6666667,27.9506173 26.962963,28.0493827 27.1604938,28.0493827 C27.3580247,28.0493827 27.654321,27.9506173 27.8518519,27.7530864 L33.382716,22.2222222 C33.7777778,21.8271605 33.7777778,21.2345679 33.382716,20.8395062 L27.8518519,15.308642 C27.4567901,14.9135802 26.8641975,14.9135802 26.4691358,15.308642 L20.9382716,20.8395062 C20.5432099,21.2345679 20.5432099,21.8271605 20.9382716,22.2222222 Z M27.1604938,17.382716 L31.308642,21.5308642 L27.1604938,25.6790123 L23.0123457,21.5308642 L27.1604938,17.382716 Z" id="Shape"></path>
                                </g>
                            </g>
                        </g>
                    </g>
                </g>
            </g>
        </g>
    </g>
</svg>