<?xml version="1.0" encoding="UTF-8"?>
<svg width="94px" height="80px" viewBox="0 0 94 80" version="1.1" xmlns="http://www.w3.org/2000/svg" xmlns:xlink="http://www.w3.org/1999/xlink">
    <!-- Generator: Sketch 41.2 (35397) - http://www.bohemiancoding.com/sketch -->
    <title>Foodie</title>
    <desc>Created with Sketch.</desc>
    <defs></defs>
    <g id="Page-1" stroke="none" stroke-width="1" fill="none" fill-rule="evenodd">
        <g id="Desktop-HD" transform="translate(-348.000000, -5411.000000)" fill="#D0011B">
            <g id="interests" transform="translate(320.000000, 5375.000000)">
                <g id="interests-Row">
                    <g id="interests-Tabloid">
                        <g id="Foodie" transform="translate(28.000000, 35.000000)">
                            <g id="foodie1">
                                <g id="Group">
                                    <g transform="translate(0.000000, 0.637820)" id="Shape">
                                        <path d="M4.50344096,0.374149398 C2.80783614,0.120848193 1.96722892,1.84335422 1.71786024,3.14426988 C-0.989224096,15.7284337 -1.00079036,30.1579277 5.41183614,42.9206747 C7.65240482,48.2982169 11.2767325,52.0254458 11.5280482,57.2235181 C11.5280482,59.0161928 11.5280289,69.8049157 11.5280482,71.6768193 C10.3210602,72.9005301 7.97117108,73.5863133 6.35042892,74.1458313 C4.2488,74.8440482 2.33946024,75.5622169 0.688346988,76.765494 C-0.291749398,77.9553735 -0.219951807,78.7142169 0.870014458,79.3851566 L29.9373899,79.3851566 C31.4076357,78.8024096 30.8023055,77.7180723 30.1190573,76.765494 C28.4766381,75.4363373 26.2495248,74.7680964 24.4569754,74.1458313 C22.4706429,73.4343133 20.6532549,72.7446747 19.2793465,71.6768193 L19.2793465,57.2235181 C20.2279055,51.3978795 23.5380839,47.0956145 25.365332,42.9813012 C31.8062959,30.2091084 31.8010429,16.606988 29.0895923,3.14465542 C28.9684742,2.04798072 27.9995586,0.120848193 26.3040598,0.37453494 L4.50344096,0.374149398 Z M4.50344096,2.30118554 L26.3039634,2.30118554 C26.7947104,2.30118554 27.151761,2.67217349 27.151761,3.14426988 C27.7423441,6.37171084 28.3023634,9.72072289 28.5748067,12.5388434 C24.8665658,11.7880964 22.202267,11.5638072 19.6729272,11.7861687 C16.9996819,12.0208675 14.4166651,12.7500241 10.8013205,13.8336867 C9.28675663,14.4117108 7.53521928,14.7200482 6.16875181,14.3453012 C4.9509012,13.9986024 3.76938795,13.2432289 2.20226506,12.6892048 C2.56645783,9.33681928 3.05782169,5.99821687 3.65558554,3.14407711 C3.78424096,2.49781205 4.20065542,2.50330602 4.50344096,2.30118554 L4.50344096,2.30118554 Z M21.7016308,13.5928193 C23.62592,13.6159518 25.7880887,13.9347952 28.7262477,14.5563855 C29.353708,24.0011084 28.0806092,33.2836145 23.6091778,42.1378313 C22.2325513,45.7235663 19.8891104,49.0208193 18.5223923,52.1342651 L12.1336193,52.1342651 C10.5791807,48.6721928 7.65240482,43.4804819 7.1982747,42.1371566 C2.8218988,33.4710843 1.51359036,23.9317108 2.05093012,14.736241 C3.17375422,15.1999518 4.2715759,15.826747 5.62378795,16.2117108 C7.94592771,16.503759 9.79968193,16.3199518 11.4674892,15.6398554 C15.0117687,14.7464578 18.6825851,13.5836627 21.7016308,13.5928193 L21.7016308,13.5928193 Z M12.9511422,54.0617831 L17.8259855,54.0617831 C17.5262361,55.0899277 17.3415229,56.1304096 17.3415229,57.2233253 L17.3415229,71.6766265 C17.3415229,72.3579759 17.7282892,72.9274217 18.1590458,73.3327229 C19.7816887,74.6723855 22.0031152,75.3314699 23.7908453,75.9522892 C25.2437706,76.4568675 26.702932,76.9563373 27.696773,77.4578313 L3.11062169,77.4578313 C4.10449157,76.9563373 5.56361446,76.4568675 7.0165494,75.9522892 C9.10598554,75.2521446 11.0193928,74.5503614 12.6483566,73.3327229 C13.0791133,72.9274217 13.4658795,72.3579759 13.4658795,71.6766265 C13.4658602,69.8047229 13.4658795,59.016 13.4658795,57.2233253 C13.4658795,56.1035181 13.2764434,55.0608193 12.9511422,54.0617831 Z"></path>
                                    </g>
                                </g>
                            </g>
                            <g id="foodie2" transform="translate(43.000000, 41.000000)">
                                <g id="Group">
                                    <g>
                                        <ellipse id="Oval" cx="25.0847458" cy="12.8135593" rx="0.677966102" ry="1.76271186"></ellipse>
                                        <ellipse id="Oval" cx="25.0847458" cy="5.3559322" rx="0.677966102" ry="1.76271186"></ellipse>
                                        <ellipse id="Oval" transform="translate(14.169234, 11.204339) rotate(135.008103) translate(-14.169234, -11.204339) " cx="14.1692339" cy="11.204339" rx="1.76269498" ry="0.677959607"></ellipse>
                                        <ellipse id="Oval" transform="translate(17.496942, 5.336251) rotate(45.000000) translate(-17.496942, -5.336251) " cx="17.4969424" cy="5.33625085" rx="0.6779596" ry="1.76269496"></ellipse>
                                        <ellipse id="Oval" transform="translate(36.722563, 11.108312) rotate(45.000000) translate(-36.722563, -11.108312) " cx="36.7225627" cy="11.1083119" rx="1.76269496" ry="0.6779596"></ellipse>
                                        <ellipse id="Oval" transform="translate(30.918725, 5.336217) rotate(45.008103) translate(-30.918725, -5.336217) " cx="30.9187254" cy="5.33621695" rx="1.76269498" ry="0.677959607"></ellipse>
                                        <ellipse id="Oval" transform="translate(30.031451, 9.061810) rotate(67.920907) translate(-30.031451, -9.061810) " cx="30.0314508" cy="9.06181017" rx="1.76277682" ry="0.677991084"></ellipse>
                                        <ellipse id="Oval" transform="translate(38.090644, 6.970576) rotate(128.308151) translate(-38.090644, -6.970576) " cx="38.0906441" cy="6.97057627" rx="0.677976305" ry="1.76273839"></ellipse>
                                        <ellipse id="Oval" transform="translate(12.071654, 6.993173) rotate(51.707943) translate(-12.071654, -6.993173) " cx="12.0716542" cy="6.99317288" rx="0.677998677" ry="1.76279656"></ellipse>
                                        <ellipse id="Oval" transform="translate(19.716380, 9.064041) rotate(112.086556) translate(-19.716380, -9.064041) " cx="19.7163797" cy="9.06404068" rx="1.76267975" ry="0.677953749"></ellipse>
                                        <path d="M44.2033898,20.7457627 C42.7118644,20.7457627 41.4237288,21.220339 40.2033898,21.6271186 C38.9830508,22.0338983 37.8983051,22.3728814 36.7457627,22.3728814 C35.9322034,22.3728814 35.0508475,22.1694915 34.0338983,21.6949153 C31.2542373,20.2711864 28.4067797,19.5254237 25.559322,19.5254237 C22.7118644,19.5254237 19.9322034,20.2711864 17.0847458,21.6949153 C16.1355932,22.1694915 15.3898305,22.3050847 14.6440678,22.3050847 C13.4915254,22.3050847 12.4745763,21.8983051 11.1864407,21.4237288 C9.96610169,20.9491525 8.54237288,20.4067797 6.84745763,20.4067797 C5.49152542,20.4067797 3.93220339,20.7457627 2.16949153,21.6949153 L2.84745763,23.0508475 C4.40677966,22.2372881 5.69491525,21.9661017 6.77966102,21.9661017 C8.13559322,21.9661017 9.3559322,22.3728814 10.5762712,22.8474576 C11.7966102,23.3220339 13.0847458,23.8644068 14.5762712,23.8644068 C15.5254237,23.8644068 16.6101695,23.6610169 17.6949153,23.0508475 C20.4745763,21.6949153 23.0508475,21.0169492 25.6271186,21.0169492 C28.2033898,21.0169492 30.779661,21.6949153 33.3559322,22.9830508 C34.5762712,23.5932203 35.6610169,23.8644068 36.7457627,23.8644068 C38.2372881,23.8644068 39.5254237,23.3898305 40.6779661,22.9830508 C41.8983051,22.5762712 42.9830508,22.2372881 44.2033898,22.2372881 C45.0847458,22.2372881 46.0338983,22.440678 47.1186441,22.9830508 L47.7966102,21.6271186 C46.5762712,21.0169492 45.3559322,20.7457627 44.2033898,20.7457627 Z" id="Shape"></path>
                                        <path d="M44.4067797,24.9491525 L5.76271186,24.9491525 C4.27118644,24.9491525 2.98305085,26.1694915 2.98305085,27.7288136 C2.98305085,29.220339 4.20338983,30.5084746 5.76271186,30.5084746 L44.4745763,30.5084746 C45.9661017,30.5084746 47.2542373,29.2881356 47.2542373,27.7288136 C47.1864407,26.1694915 45.9661017,24.9491525 44.4067797,24.9491525 Z" id="Shape"></path>
                                        <path d="M46.3050847,32 L3.86440678,32 C1.76271186,32 0.0677966102,33.6949153 0.0677966102,35.7966102 C0.0677966102,37.8983051 1.76271186,39.5932203 3.86440678,39.5932203 L46.3728814,39.5932203 C48.4745763,39.5932203 50.1694915,37.8983051 50.1694915,35.7966102 C50.1694915,33.6949153 48.4067797,32 46.3050847,32 Z M46.3050847,38.0338983 L3.86440678,38.0338983 C2.6440678,38.0338983 1.62711864,37.0169492 1.62711864,35.7966102 C1.62711864,34.5762712 2.6440678,33.559322 3.86440678,33.559322 L46.3728814,33.559322 C47.5932203,33.559322 48.6101695,34.5762712 48.6101695,35.7966102 C48.6101695,37.0169492 47.5932203,38.0338983 46.3050847,38.0338983 Z" id="Shape"></path>
                                        <path d="M5.01694915,18.2372881 L45.1525424,18.2372881 C47.1864407,18.2372881 48.8135593,16.6101695 48.8135593,14.5762712 L48.8135593,12.8813559 C48.8135593,11.0508475 48.0677966,9.3559322 46.8474576,7.86440678 C44.9491525,5.62711864 41.9661017,3.79661017 38.1694915,2.50847458 C34.440678,1.22033898 29.8983051,0.474576271 25.0847458,0.474576271 C18.6440678,0.474576271 12.8135593,1.83050847 8.54237288,4 C6.37288136,5.08474576 4.61016949,6.37288136 3.38983051,7.93220339 C2.10169492,9.28813559 1.3559322,11.0508475 1.3559322,12.8813559 L1.3559322,14.5762712 C1.3559322,16.6101695 2.98305085,18.2372881 5.01694915,18.2372881 Z M2.91525424,12.8813559 C2.91525424,11.4576271 3.45762712,10.1016949 4.54237288,8.81355932 C6.16949153,6.84745763 8.94915254,5.15254237 12.4745763,3.93220339 C16.0677966,2.71186441 20.4067797,1.96610169 25.0169492,1.96610169 C31.2542373,1.96610169 36.8813559,3.25423729 40.8813559,5.28813559 C42.9152542,6.30508475 44.4745763,7.52542373 45.559322,8.81355932 C46.6440678,10.1016949 47.1864407,11.4576271 47.1864407,12.8813559 L47.1864407,14.5762712 C47.1864407,15.7288136 46.2372881,16.6779661 45.0847458,16.6779661 L5.01694915,16.6779661 C3.86440678,16.6779661 2.91525424,15.7288136 2.91525424,14.5762712 L2.91525424,12.8813559 L2.91525424,12.8813559 Z" id="Shape"></path>
                                    </g>
                                </g>
                            </g>
                        </g>
                    </g>
                </g>
            </g>
        </g>
    </g>
</svg>