<?xml version="1.0" encoding="UTF-8"?>
<svg width="83px" height="80px" viewBox="0 0 83 80" version="1.1" xmlns="http://www.w3.org/2000/svg" xmlns:xlink="http://www.w3.org/1999/xlink">
    <!-- Generator: Sketch 41.2 (35397) - http://www.bohemiancoding.com/sketch -->
    <title>Holiday</title>
    <desc>Created with Sketch.</desc>
    <defs></defs>
    <g id="Page-1" stroke="none" stroke-width="1" fill="none" fill-rule="evenodd">
        <g id="Desktop-HD" transform="translate(-1003.000000, -5580.000000)" fill="#62B502">
            <g id="interests" transform="translate(320.000000, 5375.000000)">
                <g id="interests-Row-Copy" transform="translate(0.000000, 170.000000)">
                    <g id="interests-Tabloid-Copy-3" transform="translate(650.000000, 0.000000)">
                        <g id="Holiday" transform="translate(33.000000, 35.000000)">
                            <g id="holiday1" transform="translate(0.000000, 20.000000)">
                                <g id="7--Candles--(winter,-christmas,-holiday)">
                                    <g id="Group">
                                        <g id="Shape">
                                            <g>
                                                <path d="M7.0012,51.998 L11.1552,51.998 L23.0012,51.998 L24.9302,51.998 L30.5872,51.998 L33.4152,51.998 L39.0012,51.998 L42.0012,51.998 L42.0012,53.998 L4.0052,53.998 L4.0012,51.998 L7.0012,51.998 Z M22.0012,38.738 L22.0012,41.566 L13.5692,49.998 L10.7412,49.998 L22.0012,38.738 Z M27.8692,14.494 L31.0012,9.014 L34.1272,14.484 C34.7352,15.579 34.7402,16.92 34.1402,18.071 C34.0792,18.188 33.9952,18.281 33.9252,18.388 C33.8632,18.08 33.7702,17.778 33.6102,17.495 L31.8652,14.495 C31.5082,13.88 30.4942,13.88 30.1372,14.495 L28.3862,17.506 C28.2292,17.783 28.1372,18.082 28.0762,18.386 C28.0062,18.279 27.9232,18.187 27.8622,18.071 C27.2622,16.92 27.2672,15.579 27.8692,14.494 L27.8692,14.494 Z M31.8792,19.463 C31.8082,19.601 31.5952,19.91 31.1772,19.977 C31.0592,19.982 30.9422,19.982 30.8242,19.977 C30.4072,19.91 30.1942,19.601 30.1232,19.463 C29.9592,19.147 29.9602,18.784 30.1202,18.501 L31.0012,16.987 L31.8762,18.49 C32.0422,18.784 32.0432,19.147 31.8792,19.463 L31.8792,19.463 Z M44.0012,54.182 L44.0012,51.998 C44.0012,50.895 43.1042,49.998 42.0012,49.998 L40.0012,49.998 L40.0012,45.412 L35.4152,49.998 L32.5872,49.998 L40.0012,42.584 L40.0012,36.927 L26.9302,49.998 L24.1022,49.998 L40.0012,34.099 L40.0012,28.441 L24.0012,44.441 L24.0012,41.613 L39.9662,25.649 C39.7992,24.712 38.9842,23.998 38.0012,23.998 L35.9592,23.998 L24.0012,35.956 L24.0012,33.128 L33.1312,23.998 L32.0012,23.998 L32.0012,21.902 C33.6572,21.609 35.1002,20.551 35.9122,18.997 C36.8252,17.248 36.8122,15.198 35.8692,13.502 L31.8692,6.502 C31.5142,5.879 30.4882,5.879 30.1332,6.502 L26.1272,13.512 C25.1902,15.198 25.1772,17.248 26.0902,18.997 C26.9022,20.551 28.3462,21.609 30.0012,21.902 L30.0012,23.998 L24.0012,23.998 L24.0012,22.596 L22.3312,24.266 C22.3092,24.286 22.2892,24.306 22.2692,24.328 L6.0012,40.596 L6.0012,46.253 L22.0012,30.253 L22.0012,33.081 L6.0012,49.081 L6.0012,49.998 L4.0012,49.998 C2.9012,49.998 2.0072,50.893 2.0072,51.992 L2.0072,54.182 C0.8452,54.596 0.0072,55.696 0.0072,56.998 L0.0072,59.998 L46.0012,59.998 L46.0012,56.998 C46.0012,55.696 45.1622,54.596 44.0012,54.182 L44.0012,54.182 Z"></path>
                                                <path d="M11.8693,8.4941 L15.0013,3.0141 L18.1273,8.4841 C18.7353,9.5791 18.7403,10.9201 18.1403,12.0711 C18.0793,12.1881 17.9953,12.2811 17.9253,12.3881 C17.8633,12.0801 17.7703,11.7771 17.6103,11.4951 L15.8653,8.4951 C15.5083,7.8801 14.4943,7.8801 14.1373,8.4951 L12.3863,11.5061 C12.2293,11.7831 12.1373,12.0821 12.0763,12.3861 C12.0063,12.2791 11.9233,12.1871 11.8623,12.0711 C11.2623,10.9201 11.2663,9.5791 11.8693,8.4941 M15.8793,13.4631 C15.8083,13.6001 15.5953,13.9101 15.1773,13.9771 C15.0593,13.9821 14.9423,13.9821 14.8233,13.9771 C14.4063,13.9101 14.1943,13.6001 14.1233,13.4631 C13.9593,13.1471 13.9603,12.7841 14.1203,12.5011 L15.0013,10.9871 L15.8763,12.4901 C16.0423,12.7841 16.0433,13.1471 15.8793,13.4631 M15.9293,19.3541 L17.2863,17.9981 L16.0013,17.9981 L16.0013,15.9021 C17.6573,15.6091 19.1003,14.5511 19.9123,12.9971 C20.8253,11.2481 20.8113,9.1981 19.8693,7.5021 L15.8693,0.5021 C15.5143,-0.1209 14.4883,-0.1209 14.1333,0.5021 L10.1273,7.5121 C9.1903,9.1981 9.1773,11.2481 10.0903,12.9971 C10.9013,14.5511 12.3463,15.6091 14.0013,15.9021 L14.0013,17.9981 L8.0013,17.9981 C6.8983,17.9981 6.0013,18.8951 6.0013,19.9981 L6.0013,29.2831 L15.3583,19.9261 C15.6213,19.8251 15.8283,19.6181 15.9293,19.3541"></path>
                                                <path d="M22.0012,17.998 L20.1142,17.998 L6.0012,32.111 L6.0012,37.768 L23.9802,19.789 C23.8732,18.785 23.0322,17.998 22.0012,17.998"></path>
                                            </g>
                                        </g>
                                    </g>
                                </g>
                            </g>
                            <g id="holiday2" transform="translate(38.000000, 0.000000)">
                                <g id="Group">
                                    <g id="Shape">
                                        <path d="M36.7848837,5.49418605 L36.7848837,3.34883721 C36.7848837,2.40697674 36.3139535,1.62209302 35.5290698,1.15116279 C34.7965116,0.73255814 33.9069767,0.680232558 33.1744186,1.09883721 L31.2906977,2.14534884 C28.5174419,0.941860465 25.5348837,0.313953488 22.4476744,0.313953488 C19.3604651,0.313953488 16.4302326,0.941860465 13.6046512,2.14534884 L11.7209302,1.09883721 C10.9883721,0.680232558 10.0988372,0.73255814 9.36627907,1.15116279 C8.58139535,1.62209302 8.11046512,2.45930233 8.11046512,3.34883721 L8.11046512,5.59883721 L8.05813953,5.54651163 C3.13953488,9.73255814 0.261627907,15.9593023 0.261627907,22.5 C0.261627907,33.122093 7.74418605,41.9651163 17.6860465,44.2151163 L17.6860465,44.2151163 L17.6860465,44.2151163 C19.255814,44.5813953 20.877907,44.7383721 22.5,44.7383721 C34.744186,44.7383721 44.7383721,34.744186 44.7383721,22.5 C44.7383721,15.9069767 41.8604651,9.73255814 36.7848837,5.49418605 Z M33.9593023,2.45930233 C34.3255814,2.25 34.6395349,2.40697674 34.744186,2.45930233 C35.0581395,2.61627907 35.2151163,2.93023256 35.2151163,3.29651163 L35.2151163,12.5581395 C35.2151163,12.872093 35.0581395,13.1860465 34.7965116,13.3953488 C34.6918605,13.5 34.4302326,13.6046512 34.0639535,13.5 L25.8488372,10.7790698 C25.9011628,10.5697674 25.9534884,10.3604651 25.9534884,10.1511628 L25.9534884,7.48255814 C25.9534884,7.27325581 25.9011628,7.06395349 25.8488372,6.85465116 L33.9593023,2.45930233 Z M12.0872093,22.5 C12.0872093,19.3081395 13.5523256,16.3255814 16.0116279,14.3895349 L13.5523256,20.0930233 C13.3953488,20.4069767 13.5,20.7732558 13.7616279,21.0348837 C14.0232558,21.244186 14.4418605,21.244186 14.7034884,21.0872093 L16.9011628,19.5174419 L17.7383721,22.0813953 C17.8430233,22.3953488 18.1046512,22.6046512 18.4709302,22.6046512 L18.5232558,22.6046512 C18.8372093,22.6046512 19.1511628,22.3953488 19.255814,22.1337209 L22.5,14.127907 L25.744186,22.0813953 C25.8488372,22.3953488 26.1627907,22.5523256 26.4767442,22.5523256 L26.5290698,22.5523256 C26.8430233,22.5523256 27.1569767,22.3430233 27.2616279,22.0290698 L28.0988372,19.4651163 L30.2965116,21.0348837 C30.5581395,21.244186 30.9767442,21.244186 31.2383721,20.9825581 C31.5,20.7732558 31.6046512,20.4069767 31.4476744,20.0406977 L28.9883721,14.3372093 C31.3953488,16.2732558 32.9127907,19.255814 32.9127907,22.4476744 C32.9127907,28.2034884 28.255814,32.8604651 22.5,32.8604651 C16.744186,32.8604651 12.0872093,28.255814 12.0872093,22.5 Z M20.0406977,12.1395349 C20.4069767,12.4534884 20.877907,12.6104651 21.4011628,12.6627907 L18.5755814,19.5174419 L18.1046512,17.9476744 C18.0523256,17.6860465 17.8430233,17.5290698 17.5813953,17.4244186 C17.3197674,17.3197674 17.0581395,17.372093 16.9011628,17.5290698 L16.1162791,18.1046512 L18.4709302,12.6627907 L18.4709302,12.6627907 L20.0406977,12.1395349 Z M26.5813953,12.6627907 L26.5813953,12.6627907 L28.8837209,18.1046512 L28.0988372,17.5290698 C27.8895349,17.372093 27.627907,17.3197674 27.4186047,17.4244186 C27.1569767,17.5290698 27,17.6860465 26.8953488,17.9476744 L26.4244186,19.5174419 L23.5988372,12.6627907 C24.122093,12.6104651 24.5930233,12.4534884 24.9593023,12.1395349 L26.5813953,12.6627907 Z M24.2267442,10.6744186 C24.0697674,10.9360465 23.755814,11.1453488 23.3895349,11.1453488 L21.5581395,11.1453488 C21.1918605,11.1453488 20.9302326,10.9360465 20.7209302,10.6744186 L20.7209302,7.01162791 C20.877907,6.75 21.1918605,6.54069767 21.5581395,6.54069767 L23.3895349,6.54069767 C23.755814,6.54069767 24.0174419,6.75 24.2267442,7.01162791 L24.2267442,10.6744186 Z M22.5,1.83139535 C24.9069767,1.83139535 27.2616279,2.25 29.5116279,3.0872093 L25.0116279,5.54651163 C24.5930233,5.18023256 24.0174419,4.97093023 23.4418605,4.97093023 L21.6104651,4.97093023 C21.0348837,4.97093023 20.4593023,5.18023256 20.0406977,5.54651163 L15.5406977,3.0872093 C17.7383721,2.25 20.0930233,1.83139535 22.5,1.83139535 Z M9.78488372,3.29651163 C9.78488372,2.93023256 9.94186047,2.61627907 10.255814,2.45930233 C10.3604651,2.40697674 10.5174419,2.35465116 10.6744186,2.35465116 C10.7790698,2.35465116 10.9360465,2.40697674 11.0406977,2.45930233 L19.1511628,6.85465116 C19.0988372,7.06395349 19.0465116,7.27325581 19.0465116,7.48255814 L19.0465116,10.1511628 C19.0465116,10.3604651 19.0988372,10.5697674 19.1511628,10.7790698 L10.9360465,13.5 C10.622093,13.6046512 10.3081395,13.5 10.2034884,13.3953488 C9.94186047,13.1860465 9.78488372,12.9244186 9.78488372,12.5581395 L9.78488372,3.29651163 L9.78488372,3.29651163 Z M8.21511628,7.5872093 L8.21511628,12.5581395 C8.21511628,13.3953488 8.63372093,14.1802326 9.26162791,14.6511628 C9.68023256,14.9651163 10.1511628,15.122093 10.6744186,15.122093 C10.9360465,15.122093 11.1976744,15.0697674 11.4069767,15.0174419 L13.9186047,14.1802326 C12.2965116,15.8546512 11.1976744,18 10.7267442,20.3023256 L4.29069767,12.6627907 C5.3372093,10.8313953 6.64534884,9.10465116 8.21511628,7.5872093 Z M2.09302326,25.6918605 L15.9069767,42.0697674 C8.68604651,39.6104651 3.29651163,33.3837209 2.09302326,25.6918605 Z M19.2034884,42.9069767 L19.255814,42.8546512 L1.93604651,22.2906977 L1.83139535,22.3953488 C1.83139535,19.7790698 2.35465116,17.1627907 3.34883721,14.8081395 L10.4651163,23.2325581 L10.5697674,23.127907 C10.8313953,28.4651163 14.7034884,32.9127907 19.7267442,34.1162791 L19.6744186,34.1686047 L26.8430233,42.6976744 C25.4302326,43.0116279 23.9651163,43.1686047 22.5,43.1686047 C21.4011628,43.1686047 20.3023256,43.0639535 19.2034884,42.9069767 Z M29.0930233,42.0697674 L22.6569767,34.4825581 C29.1976744,34.377907 34.4825581,29.0406977 34.4825581,22.5 C34.4825581,19.3604651 33.2267442,16.377907 31.0813953,14.1802326 L33.5930233,15.0174419 C33.8546512,15.122093 34.1162791,15.122093 34.3255814,15.122093 C34.7965116,15.122093 35.3197674,14.9651163 35.7383721,14.6511628 C36.4186047,14.1802326 36.7848837,13.3953488 36.7848837,12.5581395 L36.7848837,7.5872093 C40.8662791,11.4593023 43.1686047,16.8488372 43.1686047,22.5 C43.1686047,31.6046512 37.255814,39.3488372 29.0930233,42.0697674 Z"></path>
                                        <path d="M36.4709302,33.2790698 L35.3197674,32.8081395 C35.1627907,32.755814 35.1104651,32.6511628 35.0581395,32.494186 L34.7965116,31.2906977 C34.744186,30.9244186 34.2732558,30.8197674 34.0639535,31.0813953 L33.2790698,32.0232558 C33.1744186,32.127907 33.0174419,32.1802326 32.9127907,32.1802326 L31.7093023,32.0232558 C31.3430233,31.9709302 31.0813953,32.3895349 31.2906977,32.7034884 L31.9186047,33.75 C31.9709302,33.8546512 32.0232558,34.0116279 31.9186047,34.1686047 L31.3953488,35.2674419 C31.2383721,35.5813953 31.5523256,35.9476744 31.8662791,35.8953488 L33.0697674,35.6337209 C33.2267442,35.5813953 33.3313953,35.6337209 33.4883721,35.7383721 L34.377907,36.5755814 C34.6395349,36.8372093 35.0581395,36.6802326 35.1104651,36.3139535 L35.2151163,35.1104651 C35.2151163,34.9534884 35.3197674,34.8488372 35.4244186,34.744186 L36.4709302,34.1686047 C36.7848837,33.8546512 36.7848837,33.3837209 36.4709302,33.2790698 Z"></path>
                                        <path d="M41.3895349,21.6104651 C41.5988372,21.2965116 41.3372093,20.9302326 40.9709302,20.9302326 L39.7674419,21.0872093 C39.6104651,21.0872093 39.505814,21.0348837 39.4011628,20.9302326 L38.6162791,19.9883721 C38.3546512,19.7267442 37.9360465,19.8313953 37.8837209,20.1976744 L37.5697674,21.4534884 C37.5174419,21.6104651 37.4651163,21.7151163 37.3081395,21.7674419 L36.1569767,22.2383721 C35.8430233,22.3953488 35.7906977,22.8662791 36.1046512,23.0232558 L37.1511628,23.5988372 C37.255814,23.6511628 37.3604651,23.8081395 37.3604651,23.9651163 L37.4651163,25.1686047 C37.5174419,25.5348837 37.9360465,25.6918605 38.1976744,25.4302326 L39.0872093,24.5930233 C39.1918605,24.4883721 39.3488372,24.4360465 39.505814,24.4883721 L40.7093023,24.75 C41.0755814,24.8546512 41.3372093,24.4883721 41.1802326,24.122093 L40.6569767,23.0232558 C40.6046512,22.8662791 40.6046512,22.7616279 40.6569767,22.6046512 L41.3895349,21.6104651 Z"></path>
                                    </g>
                                </g>
                            </g>
                        </g>
                    </g>
                </g>
            </g>
        </g>
    </g>
</svg>