<?xml version="1.0" encoding="UTF-8"?>
<svg width="112px" height="86px" viewBox="0 0 112 86" version="1.1" xmlns="http://www.w3.org/2000/svg" xmlns:xlink="http://www.w3.org/1999/xlink">
    <!-- Generator: Sketch 41.2 (35397) - http://www.bohemiancoding.com/sketch -->
    <title>Nomad</title>
    <desc>Created with Sketch.</desc>
    <defs></defs>
    <g id="Page-1" stroke="none" stroke-width="1" fill="none" fill-rule="evenodd">
        <g id="Desktop-HD" transform="translate(-556.000000, -5577.000000)" fill="#4C6085">
            <g id="interests" transform="translate(320.000000, 5375.000000)">
                <g id="interests-Row-Copy" transform="translate(0.000000, 170.000000)">
                    <g id="interests-Tabloid-Copy" transform="translate(216.666667, 0.000000)">
                        <g id="Nomad" transform="translate(19.000000, 32.000000)">
                            <g id="nomad1" transform="translate(45.000000, 0.000000)">
                                <g id="Group">
                                    <g id="Shape">
                                        <path d="M43.6029412,38.6029412 C53.3823529,38.6029412 61.25,30.6617647 61.25,20.9558824 C61.25,11.1764706 53.3088235,3.30882353 43.6029412,3.30882353 C33.8235294,3.30882353 25.9558824,11.25 25.9558824,20.9558824 C25.9558824,22.2058824 26.1029412,23.5294118 26.3970588,24.7058824 L19.8529412,26.25 C19.5588235,26.3235294 19.3382353,26.6176471 19.2647059,26.9117647 C19.2647059,27.2058824 19.4117647,27.5735294 19.7058824,27.6470588 L26.3235294,30.5882353 L26.3235294,35.4411765 C26.3235294,35.7352941 26.4705882,36.0294118 26.7647059,36.1029412 C26.8382353,36.1764706 26.9852941,36.1764706 27.0588235,36.1764706 C27.2058824,36.1764706 27.4264706,36.1029412 27.5,36.0294118 L30.0735294,33.9705882 L32.2058824,35.9558824 C32.3529412,36.1029412 32.5,36.1764706 32.7205882,36.1764706 L32.7941176,36.1764706 C33.0147059,36.1764706 33.1617647,36.1029412 33.3088235,35.8823529 L33.6764706,35.4411765 C36.6176471,37.5735294 40,38.6029412 43.6029412,38.6029412 Z M27.4264706,20.9558824 C27.4264706,12.0588235 34.7058824,4.77941176 43.6029412,4.77941176 C52.5,4.77941176 59.7794118,12.0588235 59.7794118,20.9558824 C59.7794118,29.8529412 52.5,37.1323529 43.6029412,37.1323529 C40.3676471,37.1323529 37.2794118,36.1764706 34.6323529,34.4117647 L45.4411765,21.6176471 C45.4411765,21.5441176 45.5147059,21.5441176 45.5147059,21.4705882 L45.5882353,21.3970588 C45.5882353,21.3235294 45.6617647,21.25 45.6617647,21.1764706 L45.6617647,21.1764706 C45.6617647,21.1029412 45.6617647,21.0294118 45.5882353,20.8823529 L45.5882353,20.8823529 C45.5882353,20.8823529 45.5882353,20.8088235 45.5147059,20.8088235 C45.5147059,20.7352941 45.4411765,20.7352941 45.4411765,20.6617647 L45.4411765,20.6617647 L45.3676471,20.5882353 L45.2941176,20.5147059 C45.2205882,20.5147059 45.2205882,20.5147059 45.1470588,20.4411765 C45.0735294,20.4411765 45.0735294,20.4411765 45,20.3676471 L44.8529412,20.3676471 L44.7058824,20.3676471 C44.7058824,20.3676471 44.7058824,20.3676471 44.6323529,20.3676471 L27.7941176,24.4117647 C27.5735294,23.2352941 27.4264706,22.1323529 27.4264706,20.9558824 Z M38.8235294,23.3088235 L26.9852941,29.3382353 L22.3529412,27.2058824 L38.8235294,23.3088235 Z M27.7941176,33.8970588 L27.7941176,31.8382353 L28.9705882,32.9411765 L27.7941176,33.8970588 Z M32.6470588,34.4117647 L30.6617647,32.5 L30.6617647,32.5 L28.4558824,30.4411765 L28.3823529,30.3676471 L41.9117647,23.4558824 L32.6470588,34.4117647 Z"></path>
                                        <path d="M53.2352941,0.220588235 C52.8676471,0.0735294118 52.4264706,0.220588235 52.2058824,0.588235294 C52.0588235,0.955882353 52.2058824,1.39705882 52.5735294,1.61764706 C63.2352941,6.54411765 67.8676471,19.2647059 62.9411765,29.9264706 C58.0147059,40.5882353 45.2941176,45.2205882 34.6323529,40.2941176 C34.2647059,40.1470588 33.8235294,40.2941176 33.6029412,40.6617647 C33.4558824,41.0294118 33.6029412,41.4705882 33.9705882,41.6911765 C36.8382353,43.0147059 39.8529412,43.6764706 42.8676471,43.8235294 L42.8676471,48.3088235 L37.2794118,48.3088235 C36.8382353,48.3088235 36.5441176,48.6764706 36.5441176,49.0441176 C36.5441176,49.4852941 36.9117647,49.7794118 37.2794118,49.7794118 L49.2647059,49.7794118 C49.7058824,49.7794118 50,49.4117647 50,49.0441176 C50,48.6029412 49.6323529,48.3088235 49.2647059,48.3088235 L44.4117647,48.3088235 L44.4117647,43.8235294 C52.7205882,43.5294118 60.6617647,38.6764706 64.4117647,30.6617647 C69.6323529,19.1176471 64.6323529,5.51470588 53.2352941,0.220588235 Z"></path>
                                        <path d="M22.5735294,32.5 L21.9117647,32.8676471 C21.6911765,33.0147059 21.6176471,33.3088235 21.7647059,33.5294118 C21.8382353,33.6764706 22.0588235,33.75 22.2058824,33.75 C22.2794118,33.75 22.3529412,33.75 22.4264706,33.6764706 L23.0882353,33.3088235 C23.3088235,33.1617647 23.3823529,32.8676471 23.2352941,32.6470588 C23.0882353,32.4264706 22.7941176,32.3529412 22.5735294,32.5 Z"></path>
                                        <path d="M9.48529412,27.7941176 C9.41176471,27.5 9.19117647,27.3529412 8.89705882,27.4264706 C8.38235294,27.5735294 7.79411765,27.7205882 7.35294118,28.0147059 C7.13235294,28.1617647 7.05882353,28.4558824 7.20588235,28.6764706 C7.27941176,28.8235294 7.5,28.8970588 7.64705882,28.8970588 C7.72058824,28.8970588 7.79411765,28.8970588 7.86764706,28.8235294 C8.23529412,28.6029412 8.67647059,28.4558824 9.11764706,28.3823529 C9.33823529,28.3823529 9.48529412,28.0882353 9.48529412,27.7941176 Z"></path>
                                        <path d="M7.13235294,35.6617647 C6.83823529,35.3676471 6.54411765,35.0735294 6.32352941,34.7058824 C6.17647059,34.4852941 5.88235294,34.4117647 5.66176471,34.5588235 C5.44117647,34.7058824 5.36764706,35 5.51470588,35.2205882 C5.80882353,35.6617647 6.10294118,36.0294118 6.54411765,36.3970588 L6.61764706,36.4705882 C6.69117647,36.5441176 6.83823529,36.5441176 6.91176471,36.5441176 C7.05882353,36.5441176 7.20588235,36.4705882 7.27941176,36.3235294 C7.42647059,36.1029412 7.42647059,35.8088235 7.20588235,35.5882353 L7.13235294,35.6617647 Z"></path>
                                        <path d="M5.22058824,32.6470588 L5.22058824,32.6470588 C5.51470588,32.6470588 5.73529412,32.4264706 5.73529412,32.2058824 C5.73529412,32.0588235 5.73529412,31.9117647 5.80882353,31.7647059 C5.88235294,31.4705882 5.95588235,31.1764706 6.02941176,30.9558824 C6.10294118,30.7352941 6.02941176,30.4411765 5.73529412,30.2941176 C5.51470588,30.2205882 5.22058824,30.2941176 5.07352941,30.5882353 C4.92647059,30.9558824 4.85294118,31.25 4.77941176,31.6176471 C4.77941176,31.8382353 4.70588235,31.9852941 4.70588235,32.2058824 C4.70588235,32.3529412 4.92647059,32.6470588 5.22058824,32.6470588 Z"></path>
                                        <path d="M5.66176471,39.4117647 L5.36764706,39.4117647 C5,39.4117647 4.55882353,39.4117647 4.19117647,39.3382353 C3.89705882,39.3382353 3.67647059,39.4852941 3.67647059,39.7794118 C3.67647059,40.0735294 3.82352941,40.2941176 4.11764706,40.2941176 C4.55882353,40.3676471 5,40.3676471 5.36764706,40.3676471 L5.66176471,40.3676471 C5.95588235,40.3676471 6.17647059,40.1470588 6.17647059,39.8529412 C6.10294118,39.6323529 5.88235294,39.4117647 5.66176471,39.4117647 Z"></path>
                                        <path d="M9.77941176,38.4558824 C9.33823529,38.6764706 8.89705882,38.8235294 8.45588235,38.9705882 C8.16176471,39.0441176 8.01470588,39.3382353 8.08823529,39.5588235 C8.16176471,39.7794118 8.38235294,39.9264706 8.60294118,39.9264706 L8.75,39.9264706 C9.26470588,39.7794118 9.77941176,39.5588235 10.2205882,39.3382353 C10.4411765,39.1911765 10.5882353,38.8970588 10.4411765,38.6764706 C10.3676471,38.4558824 10.0735294,38.3088235 9.77941176,38.4558824 Z"></path>
                                        <path d="M14.4117647,33.75 L14.4852941,33.75 C14.7058824,33.75 14.9264706,33.6029412 15,33.3088235 C15.0735294,33.0147059 15.0735294,32.7205882 15.0735294,32.5 C15.0735294,32.2058824 15.0735294,31.9117647 15,31.6911765 C14.9264706,31.3970588 14.7058824,31.25 14.4117647,31.25 C14.1176471,31.3235294 13.9705882,31.5441176 13.9705882,31.8382353 C13.9705882,32.0588235 14.0441176,32.2794118 14.0441176,32.5 C14.0441176,32.7205882 14.0441176,32.9411765 13.9705882,33.1617647 C13.9705882,33.4558824 14.1911765,33.75 14.4117647,33.75 Z"></path>
                                        <path d="M15.2941176,36.3970588 C14.7794118,36.6176471 14.3382353,36.7647059 13.8970588,36.8382353 C13.6029412,36.9117647 13.4558824,37.2058824 13.5294118,37.4264706 C13.6029412,37.6470588 13.8235294,37.7941176 14.0441176,37.7941176 L14.1911765,37.7941176 C14.6323529,37.6470588 15.1470588,37.5 15.6617647,37.2794118 C15.9558824,37.2058824 16.0294118,36.9117647 15.9558824,36.6176471 C15.8823529,36.3970588 15.5882353,36.25 15.2941176,36.3970588 Z"></path>
                                        <path d="M19.3382353,34.4117647 C18.8970588,34.6323529 18.4558824,34.9264706 18.0147059,35.1470588 C17.7941176,35.2941176 17.6470588,35.5882353 17.7941176,35.8088235 C17.8676471,35.9558824 18.0882353,36.1029412 18.2352941,36.1029412 C18.3088235,36.1029412 18.3823529,36.1029412 18.4558824,36.0294118 C18.8970588,35.8088235 19.3382353,35.5147059 19.7794118,35.2941176 C20,35.1470588 20.0735294,34.8529412 20,34.6323529 C19.8529412,34.3382353 19.5588235,34.2647059 19.3382353,34.4117647 Z"></path>
                                        <path d="M11.1029412,37.2058824 C10.5882353,37.2058824 10.1470588,37.1323529 9.70588235,36.9852941 C9.41176471,36.9117647 9.19117647,37.0588235 9.11764706,37.3529412 C9.04411765,37.6470588 9.19117647,37.8676471 9.48529412,37.9411765 C10,38.0882353 10.5147059,38.1617647 11.1029412,38.1617647 L11.1029412,38.1617647 C11.3970588,38.1617647 11.6176471,37.9411765 11.6176471,37.6470588 C11.6176471,37.4264706 11.3970588,37.2058824 11.1029412,37.2058824 Z"></path>
                                        <path d="M13.1617647,29.6323529 C13.3088235,29.6323529 13.4558824,29.5588235 13.5294118,29.4852941 C13.75,29.2647059 13.75,28.9705882 13.5294118,28.75 C13.1617647,28.3823529 12.6470588,28.0147059 12.1323529,27.7941176 C11.9117647,27.6470588 11.6176471,27.7941176 11.4705882,28.0147059 C11.3235294,28.2352941 11.4705882,28.5294118 11.6911765,28.6764706 C12.1323529,28.8970588 12.5,29.1176471 12.7941176,29.4117647 C12.8676471,29.5588235 13.0147059,29.6323529 13.1617647,29.6323529 Z"></path>
                                        <path d="M13.75,35.6617647 C13.5294118,35.5147059 13.2352941,35.5882353 13.0882353,35.8088235 C12.8676471,36.1764706 12.5,36.5441176 12.2058824,36.9117647 C11.9852941,37.1323529 11.9852941,37.4264706 12.2058824,37.6470588 C12.2794118,37.7205882 12.4264706,37.7941176 12.5735294,37.7941176 C12.7205882,37.7941176 12.7941176,37.7205882 12.9411765,37.6470588 C13.3088235,37.2794118 13.6764706,36.8382353 13.9705882,36.3970588 C14.0441176,36.1029412 13.9705882,35.8088235 13.75,35.6617647 Z"></path>
                                        <path d="M1.39705882,38.6764706 C1.17647059,38.6029412 0.955882353,38.4558824 0.735294118,38.3823529 C0.514705882,38.2352941 0.220588235,38.3823529 0.0735294118,38.6029412 C-0.0735294118,38.8235294 0.0735294118,39.1176471 0.294117647,39.2647059 C0.514705882,39.4117647 0.735294118,39.4852941 1.02941176,39.5588235 L1.25,39.5588235 C1.47058824,39.5588235 1.61764706,39.4117647 1.69117647,39.2647059 C1.76470588,39.0441176 1.61764706,38.75 1.39705882,38.6764706 Z"></path>
                                    </g>
                                </g>
                            </g>
                            <g id="nomad2" transform="translate(0.000000, 26.000000)">
                                <g id="Group">
                                    <g>
                                        <path d="M25.1333333,2.64066667 C25.1333333,1.18466667 23.9873333,0 22.5793333,0 L14.4686667,0 C13.0606667,0 11.9153333,1.18466667 11.9153333,2.64066667 L11.9153333,2.64733333 L25.1333333,2.64733333 L25.1333333,2.64066667 Z" id="Shape"></path>
                                        <path d="M45.37,2.64066667 C45.37,1.18466667 44.2233333,0 42.8153333,0 L34.704,0 C33.296,0 32.15,1.18466667 32.15,2.64066667 L32.15,2.64733333 L45.3693333,2.64733333 L45.3693333,2.64066667 L45.37,2.64066667 Z" id="Shape"></path>
                                        <path d="M14.4686667,9.27933333 L14.4886667,9.27933333 L14.4886667,12.3586667 C14.638,12.3426667 14.79,12.3333333 14.944,12.3333333 L22.56,12.3333333 L22.56,9.27933333 L22.5793333,9.27933333 C23.9873333,9.27933333 25.134,8.094 25.134,6.638 L25.134,3.982 L11.9153333,3.982 L11.9153333,6.638 C11.9153333,8.09466667 13.0606667,9.27933333 14.4686667,9.27933333 Z" id="Shape"></path>
                                        <path d="M34.704,9.27933333 L34.7246667,9.27933333 L34.7246667,12.3333333 L41.7173333,12.3333333 C42.0893333,12.3333333 42.4493333,12.388 42.7953333,12.4813333 L42.7953333,9.27933333 L42.8153333,9.27933333 C44.2233333,9.27933333 45.37,8.094 45.37,6.638 L45.37,3.982 L32.1506667,3.982 L32.1506667,6.638 C32.1506667,8.09466667 33.296,9.27933333 34.704,9.27933333 Z" id="Shape"></path>
                                        <path d="M23.6213333,50.6386667 L4.08333333,50.6386667 C2.14933333,50.6386667 0.575333333,52.346 0.575333333,54.4446667 L0.575333333,56.184 C0.575333333,56.1886667 0.576,56.1933333 0.576,56.198 L27.1273333,56.198 C27.1273333,56.1933333 27.128,56.1886667 27.128,56.184 L27.128,54.4446667 C27.128,52.3466667 25.5553333,50.6386667 23.6213333,50.6386667 Z" id="Shape"></path>
                                        <path d="M4.08333333,59.9893333 L23.6213333,59.9893333 C25.1173333,59.9893333 26.394,58.966 26.8966667,57.532 L0.807333333,57.532 C1.31066667,58.9666667 2.58733333,59.9893333 4.08333333,59.9893333 Z" id="Shape"></path>
                                        <path d="M53.202,50.6386667 L33.6646667,50.6386667 C31.7306667,50.6386667 30.1566667,52.346 30.1566667,54.4446667 L30.1566667,56.184 C30.1566667,56.1886667 30.1573333,56.1933333 30.1573333,56.198 L56.7086667,56.198 C56.7086667,56.1933333 56.7093333,56.1886667 56.7093333,56.184 L56.7093333,54.4446667 C56.7086667,52.3466667 55.136,50.6386667 53.202,50.6386667 Z" id="Shape"></path>
                                        <path d="M33.6646667,59.9893333 L53.2026667,59.9893333 C54.6986667,59.9893333 55.9753333,58.966 56.478,57.532 L30.3886667,57.532 C30.8913333,58.9666667 32.168,59.9893333 33.6646667,59.9893333 Z" id="Shape"></path>
                                        <path d="M22.6193333,16.9206667 L34.664,16.9206667 C36.674,16.9206667 38.4546667,17.9646667 39.5666667,19.5646667 L44.7853333,19.5646667 L44.7853333,17.004 C44.7853333,15.1646667 43.4086667,13.668 41.7166667,13.668 L14.944,13.668 C13.2513333,13.668 11.8753333,15.1646667 11.8753333,17.004 L11.8753333,19.5646667 L17.718,19.5646667 C18.8293333,17.9646667 20.6093333,16.9206667 22.6193333,16.9206667 Z M15.0213333,15.842 C14.206,15.842 14.1253333,16.7146667 14.1186667,16.814 L14.12,18.2553333 C14.12,18.6233333 13.822,18.922 13.4533333,18.922 C13.0853333,18.922 12.786,18.6233333 12.786,18.2553333 L12.786,16.77 C12.838,15.9586667 13.3693333,14.5073333 15.022,14.5073333 C15.3906667,14.5073333 15.6893333,14.8066667 15.6893333,15.174 C15.6886667,15.5433333 15.39,15.842 15.0213333,15.842 Z" id="Shape"></path>
                                        <path d="M4.08333333,49.3046667 L23.6213333,49.3046667 C24.0386667,49.3046667 24.442,49.3673333 24.8293333,49.4733333 C24.832,49.4393333 24.84,49.406 24.84,49.372 L24.84,41.2473333 L32.5066667,41.2473333 L32.5066667,49.372 C32.5066667,49.4006667 32.5133333,49.4286667 32.5153333,49.4573333 C32.884,49.3613333 33.2673333,49.3046667 33.664,49.3046667 L53.202,49.3046667 C53.6406667,49.3046667 54.064,49.3726667 54.468,49.4886667 C54.4753333,49.4126667 54.48,49.336 54.4733333,49.258 L52.61,26.1773333 C52.5813333,23.26 50.318,20.8966667 47.54,20.8966667 L40.288,20.8966667 C40.594,21.6693333 40.7646667,22.5186667 40.7646667,23.4093333 C40.7646667,26.8113333 38.2893333,29.604 35.154,29.8706667 L22.1293333,29.8706667 C18.9946667,29.604 16.52,26.8106667 16.52,23.4093333 C16.52,22.5186667 16.69,21.67 16.996,20.8966667 L9.80666667,20.8966667 C7.02866667,20.8966667 4.76533333,23.26 4.736,26.1773333 L2.87266667,49.258 C2.86666667,49.3306667 2.872,49.4013333 2.878,49.4726667 C3.264,49.3673333 3.66666667,49.3046667 4.08333333,49.3046667 Z M51.4786667,43.1193333 C51.5106667,43.486 51.2386667,43.81 50.872,43.842 C50.8526667,43.844 50.832,43.8446667 50.8133333,43.8446667 C50.4706667,43.8446667 50.1793333,43.5833333 50.1493333,43.236 L49.9966667,41.4866667 C49.964,41.1193333 50.236,40.7953333 50.6026667,40.7633333 C50.974,40.726 51.294,41.0026667 51.326,41.37 L51.4786667,43.1193333 Z M49.51,28.054 C49.8766667,28.024 50.2,28.2953333 50.2313333,28.6626667 L51.1146667,39.0686667 C51.146,39.436 50.8733333,39.7586667 50.506,39.79 C50.4873333,39.792 50.468,39.7926667 50.4493333,39.7926667 C50.106,39.7926667 49.8146667,39.5293333 49.7846667,39.1813333 L48.9006667,28.7753333 C48.8706667,28.408 49.1433333,28.0846667 49.51,28.054 Z M24.8393333,38.5786667 L24.8393333,32.54 L32.5066667,32.54 L32.5066667,38.5786667 L24.8393333,38.5786667 Z M7.052,28.662 C7.08333333,28.2953333 7.40133333,28.0233333 7.77333333,28.0533333 C8.14066667,28.0846667 8.41266667,28.408 8.382,28.7746667 L7.49866667,39.1806667 C7.46933333,39.5286667 7.17733333,39.792 6.83466667,39.792 C6.816,39.792 6.79666667,39.7913333 6.77733333,39.7893333 C6.41066667,39.758 6.138,39.4353333 6.16866667,39.068 L7.052,28.662 Z M5.95866667,41.37 C5.99066667,41.0026667 6.316,40.7306667 6.68133333,40.7633333 C7.048,40.7953333 7.32,41.1193333 7.288,41.4866667 L7.13533333,43.236 C7.10466667,43.5833333 6.81333333,43.8446667 6.47133333,43.8446667 C6.452,43.8446667 6.432,43.844 6.412,43.842 C6.04533333,43.81 5.77333333,43.486 5.806,43.1193333 L5.95866667,41.37 Z" id="Shape"></path>
                                        <path d="M34.6646667,18.2553333 L22.6193333,18.2553333 C19.992,18.2553333 17.8546667,20.5673333 17.8546667,23.4093333 C17.8546667,26.2513333 19.992,28.5626667 22.6193333,28.5626667 L34.664,28.5626667 C37.2913333,28.5626667 39.4293333,26.2506667 39.4293333,23.4093333 C39.43,20.5673333 37.292,18.2553333 34.6646667,18.2553333 Z M22.9386667,26.314 C21.4193333,26.314 20.1833333,25.0106667 20.1833333,23.4093333 C20.1833333,21.808 21.4193333,20.5046667 22.9386667,20.5046667 C24.4573333,20.5046667 25.6926667,21.808 25.6926667,23.4093333 C25.6933333,25.0106667 24.458,26.314 22.9386667,26.314 Z M34.346,26.314 C32.8266667,26.314 31.5906667,25.0106667 31.5906667,23.4093333 C31.5906667,21.808 32.8266667,20.5046667 34.346,20.5046667 C35.8646667,20.5046667 37.1013333,21.808 37.1013333,23.4093333 C37.1006667,25.0106667 35.8646667,26.314 34.346,26.314 Z" id="Shape"></path>
                                        <path d="M22.9386667,21.8386667 C22.1546667,21.8386667 21.5173333,22.5433333 21.5173333,23.4086667 C21.5173333,24.2746667 22.1546667,24.9793333 22.9386667,24.9793333 C23.7213333,24.9793333 24.3586667,24.2746667 24.3586667,23.4086667 C24.3586667,22.5426667 23.7213333,21.8386667 22.9386667,21.8386667 Z" id="Shape"></path>
                                        <ellipse id="Oval" cx="34.3453333" cy="23.4093333" rx="1.53733333" ry="1.53733333"></ellipse>
                                    </g>
                                </g>
                            </g>
                        </g>
                    </g>
                </g>
            </g>
        </g>
    </g>
</svg>