<?xml version="1.0" encoding="UTF-8"?>
<svg width="81px" height="80px" viewBox="0 0 81 80" version="1.1" xmlns="http://www.w3.org/2000/svg" xmlns:xlink="http://www.w3.org/1999/xlink">
    <!-- Generator: Sketch 41.2 (35397) - http://www.bohemiancoding.com/sketch -->
    <title>occasional</title>
    <desc>Created with Sketch.</desc>
    <defs></defs>
    <g id="Page-1" stroke="none" stroke-width="1" fill="none" fill-rule="evenodd">
        <g id="Desktop-HD" transform="translate(-355.000000, -5580.000000)" fill="#B9179C">
            <g id="interests" transform="translate(320.000000, 5375.000000)">
                <g id="interests-Row-Copy" transform="translate(0.000000, 170.000000)">
                    <g id="interests-Tabloid">
                        <g id="occasional" transform="translate(35.000000, 35.000000)">
                            <g id="occassional2" transform="translate(37.000000, 0.000000)">
                                <g id="Group">
                                    <path d="M16.424,15.4946667 C16.2833333,15.0826667 15.8346667,14.8613333 15.4213333,15.0033333 C15.0086667,15.144 14.7886667,15.5933333 14.93,16.006 C15.4386667,17.4926667 16.2886667,18.8013333 17.388,19.7906667 C17.5393333,19.9266667 17.7273333,19.9933333 17.916,19.9933333 C18.132,19.9933333 18.3473333,19.9053333 18.5033333,19.732 C18.7953333,19.408 18.7686667,18.9086667 18.4446667,18.6173333 C17.544,17.8066667 16.846,16.7273333 16.424,15.4946667 Z" id="Shape"></path>
                                    <path d="M28.0666667,12.006 C28.0866667,12.242 28.098,12.4806667 28.098,12.7233333 C28.098,13.0846667 28.0746667,13.4486667 28.028,13.806 C27.9673333,14.2713333 28.2946667,14.6973333 28.7613333,14.7586667 C28.798,14.7633333 28.8346667,14.766 28.872,14.766 C29.2926667,14.766 29.6573333,14.4546667 29.7133333,14.0266667 C29.7693333,13.5966667 29.798,13.1586667 29.798,12.724 C29.798,12.4326667 29.7846667,12.146 29.7613333,11.8626667 C29.72,11.3953333 29.3146667,11.0406667 28.842,11.0886667 C28.374,11.1273333 28.0266667,11.5386667 28.0666667,12.006 Z" id="Shape"></path>
                                    <path d="M24.43,6.24 C25.8686667,6.93933333 27.0393333,8.31733333 27.6413333,10.0206667 C27.7646667,10.3693333 28.0926667,10.588 28.442,10.588 C28.5366667,10.588 28.6313333,10.572 28.7253333,10.5393333 C29.1673333,10.3833333 29.4,9.898 29.242,9.45533333 C28.494,7.334 27.0086667,5.60533333 25.172,4.71266667 C24.75,4.50733333 24.2413333,4.68333333 24.0366667,5.10533333 C23.8313333,5.52733333 24.008,6.03533333 24.43,6.24 Z" id="Shape"></path>
                                    <path d="M43.586,29.1126667 C43.084,26.604 41.6693333,24.5826667 39.6013333,23.4206667 C38.4213333,22.758 37.122,22.422 35.738,22.422 C32.234,22.422 28.8633333,24.5446667 26.944,27.962 C25.624,30.3126667 25.168,32.97 25.6626667,35.444 C26.03,37.2786667 26.89,38.8473333 28.132,40.0153333 L26.146,40.868 C25.9313333,40.9606667 25.788,41.1666667 25.7746667,41.4006667 C25.7613333,41.634 25.8833333,41.854 26.0873333,41.9686667 L28.1586667,43.1326667 L22.8113333,55.8273333 L22.8113333,27.998 L25.478,27.998 C25.7126667,27.998 25.926,27.8653333 26.0286667,27.656 C26.132,27.4466667 26.1073333,27.1966667 25.9653333,27.0113333 L24.2406667,24.758 C29.106,23.654 32.7886667,18.6946667 32.7886667,12.756 C32.7886667,6.00933333 28.0373333,0.52 22.196,0.52 C16.3553333,0.52 11.6033333,6.00866667 11.6033333,12.756 C11.6033333,18.6946667 15.286,23.6546667 20.1513333,24.758 L18.4273333,27.0113333 C18.2853333,27.1966667 18.2606667,27.4466667 18.3646667,27.6566667 C18.468,27.866 18.6813333,27.9986667 18.9153333,27.9986667 L21.582,27.9986667 L21.582,55.828 L16.16,42.9533333 L17.91,41.9686667 C18.114,41.854 18.2346667,41.634 18.2226667,41.4006667 C18.2106667,41.1666667 18.0666667,40.9606667 17.852,40.868 L15.866,40.0153333 C17.108,38.8473333 17.968,37.2786667 18.3346667,35.444 C18.83,32.97 18.3753333,30.3126667 17.054,27.962 C15.1333333,24.5446667 11.7633333,22.422 8.26,22.422 C6.87533333,22.422 5.57533333,22.758 4.396,23.4206667 C2.32866667,24.5826667 0.914,26.6033333 0.412,29.1126667 C-0.0826666667,31.5866667 0.372,34.244 1.69333333,36.5953333 C3.61333333,40.012 6.98333333,42.136 10.4866667,42.136 C11.22,42.136 11.9266667,42.036 12.6073333,41.848 L12.3033333,43.9873333 C12.2706667,44.22 12.372,44.4486667 12.5646667,44.582 C12.6686667,44.6526667 12.79,44.6886667 12.9113333,44.6886667 C13.0146667,44.6886667 13.1186667,44.6626667 13.212,44.61 L15.0826667,43.5586667 L21.6306667,59.106 C21.632,59.1086667 21.634,59.1106667 21.6353333,59.1133333 C21.6633333,59.1793333 21.704,59.2353333 21.75,59.284 C21.764,59.2993333 21.78,59.3113333 21.7953333,59.3253333 C21.8346667,59.3606667 21.8773333,59.39 21.924,59.4133333 C21.9433333,59.4233333 21.9613333,59.432 21.982,59.4406667 C22.05,59.466 22.1206667,59.4826667 22.196,59.4826667 C22.2713333,59.4826667 22.3426667,59.466 22.41,59.4406667 C22.4293333,59.432 22.4486667,59.4233333 22.468,59.4126667 C22.514,59.3893333 22.5573333,59.3606667 22.596,59.3266667 C22.6113333,59.3126667 22.6273333,59.3006667 22.6413333,59.2846667 C22.688,59.236 22.728,59.18 22.7573333,59.114 C22.7573333,59.1113333 22.76,59.1093333 22.7613333,59.1066667 L29.234,43.7393333 L30.782,44.6106667 C30.876,44.6633333 30.98,44.6893333 31.0826667,44.6893333 C31.204,44.6893333 31.3246667,44.6533333 31.4293333,44.5826667 C31.6233333,44.4506667 31.7233333,44.2206667 31.692,43.988 L31.3886667,41.8486667 C32.0693333,42.0353333 32.776,42.1366667 33.5093333,42.1366667 C37.0133333,42.1366667 40.3833333,40.0126667 42.302,36.596 C43.626,34.244 44.0813333,31.5866667 43.586,29.1126667 Z M10.4886667,40.906 C7.47466667,40.906 4.44333333,38.9766667 2.76533333,35.9926667 C1.588,33.8966667 1.18066667,31.54 1.618,29.3533333 C2.04866667,27.2006667 3.24933333,25.4746667 4.99933333,24.492 C5.99266667,23.934 7.09066667,23.6506667 8.262,23.6506667 C11.276,23.6506667 14.308,25.5793333 15.986,28.564 C17.1633333,30.6593333 17.5706667,33.0166667 17.1333333,35.2026667 C16.7026667,37.3553333 15.502,39.0806667 13.752,40.0646667 C12.7573333,40.624 11.66,40.906 10.4886667,40.906 Z M13.696,42.93 L13.9213333,41.344 C14.0653333,41.2746667 14.2126667,41.2153333 14.3526667,41.1353333 C14.4933333,41.056 14.6233333,40.9633333 14.758,40.876 L16.2266667,41.506 L13.696,42.93 Z M12.834,12.7553333 C12.834,6.686 17.0346667,1.74733333 22.1986667,1.74733333 C27.362,1.74733333 31.564,6.68533333 31.564,12.7553333 C31.564,18.8253333 27.362,23.7633333 22.1986667,23.7633333 C17.0346667,23.7633333 12.834,18.8246667 12.834,12.7553333 Z M20.1606667,26.77 L21.5506667,24.9526667 C21.766,24.9673333 21.98,24.9906667 22.1986667,24.9906667 C22.4166667,24.9906667 22.63,24.968 22.8466667,24.9526667 L24.2373333,26.77 L20.1606667,26.77 Z M27.7726667,41.5073333 L29.2406667,40.8766667 C29.376,40.964 29.5053333,41.0573333 29.6466667,41.1366667 C29.7873333,41.2153333 29.9346667,41.2746667 30.0773333,41.3446667 L30.3026667,42.932 L27.7726667,41.5073333 Z M41.2346667,35.9926667 C39.5566667,38.978 36.526,40.906 33.512,40.906 C32.3413333,40.906 31.2426667,40.6233333 30.2486667,40.0646667 C28.4986667,39.08 27.2966667,37.3546667 26.8673333,35.2026667 C26.43,33.0153333 26.8373333,30.6586667 28.0146667,28.5626667 C29.6933333,25.578 32.724,23.6493333 35.7386667,23.6493333 C36.9106667,23.6493333 38.008,23.9326667 39.002,24.4906667 C40.752,25.474 41.9526667,27.2006667 42.3833333,29.3526667 C42.8193333,31.5406667 42.4113333,33.8986667 41.2346667,35.9926667 Z" id="Shape"></path>
                                    <path d="M29.5853333,31.9533333 C29.6706667,31.4933333 29.366,31.05 28.9046667,30.964 C28.44,30.8766667 28.0006667,31.184 27.9153333,31.6446667 C27.6746667,32.9466667 27.7593333,34.2606667 28.1586667,35.4446667 C28.2793333,35.7986667 28.61,36.022 28.9633333,36.022 C29.0546667,36.022 29.1453333,36.008 29.2353333,35.9773333 C29.6806667,35.8266667 29.918,35.3453333 29.768,34.9013333 C29.4593333,33.9893333 29.3973333,32.9713333 29.5853333,31.9533333 Z" id="Shape"></path>
                                    <path d="M40.114,33.618 C39.6846667,33.424 39.1833333,33.614 38.9886667,34.042 C38.9113333,34.2153333 38.8246667,34.386 38.7286667,34.5553333 C38.5846667,34.8113333 38.4246667,35.0573333 38.2526667,35.2873333 C37.9713333,35.6626667 38.048,36.1946667 38.4246667,36.476 C38.5773333,36.59 38.7553333,36.6453333 38.9326667,36.6453333 C39.192,36.6453333 39.4466667,36.5273333 39.6133333,36.3046667 C39.8286667,36.016 40.0293333,35.7073333 40.21,35.3886667 C40.33,35.1766667 40.4386667,34.9613333 40.5366667,34.744 C40.7306667,34.3153333 40.542,33.812 40.114,33.618 Z" id="Shape"></path>
                                    <path d="M38.932,27.4153333 C38.5466667,27.6826667 38.4506667,28.212 38.7193333,28.5973333 C39.3366667,29.4873333 39.6313333,30.6453333 39.5486667,31.8573333 C39.5166667,32.3253333 39.8706667,32.7306667 40.3393333,32.7613333 C40.3586667,32.7626667 40.3793333,32.764 40.3973333,32.764 C40.8413333,32.764 41.214,32.4193333 41.2446667,31.972 C41.3526667,30.376 40.9526667,28.8346667 40.116,27.6293333 C39.8473333,27.2426667 39.318,27.148 38.932,27.4153333 Z" id="Shape"></path>
                                    <path d="M14.764,35.9773333 C14.854,36.008 14.946,36.022 15.036,36.022 C15.3906667,36.022 15.7206667,35.7986667 15.8406667,35.4446667 C16.2413333,34.2606667 16.326,32.9466667 16.0846667,31.6446667 C15.9993333,31.184 15.5573333,30.878 15.0946667,30.964 C14.6333333,31.05 14.3286667,31.4933333 14.414,31.9533333 C14.602,32.9713333 14.5393333,33.9913333 14.2313333,34.9013333 C14.0813333,35.3453333 14.3193333,35.8266667 14.764,35.9773333 Z" id="Shape"></path>
                                    <path d="M5.27066667,34.554 C5.17533333,34.3846667 5.08933333,34.2133333 5.01066667,34.04 C4.81666667,33.6133333 4.31466667,33.424 3.886,33.6166667 C3.45866667,33.8106667 3.26933333,34.3146667 3.46333333,34.742 C3.562,34.9586667 3.67066667,35.1733333 3.78933333,35.3853333 C3.966,35.7006667 4.166,36.0086667 4.38466667,36.3013333 C4.55133333,36.5253333 4.80733333,36.6433333 5.066,36.6433333 C5.24266667,36.6433333 5.42066667,36.5886667 5.57333333,36.4746667 C5.94933333,36.194 6.02733333,35.662 5.74666667,35.286 C5.572,35.052 5.41266667,34.806 5.27066667,34.554 Z" id="Shape"></path>
                                    <path d="M3.66133333,32.7633333 C4.12933333,32.7306667 4.48333333,32.3266667 4.45133333,31.8586667 C4.36866667,30.6466667 4.66333333,29.4886667 5.28133333,28.5986667 C5.54866667,28.2133333 5.45266667,27.684 5.06733333,27.4166667 C4.682,27.15 4.15266667,27.2446667 3.88533333,27.6306667 C3.04933333,28.836 2.64866667,30.3786667 2.75666667,31.9733333 C2.78733333,32.422 3.16,32.7653333 3.60333333,32.7653333 C3.622,32.764 3.64133333,32.764 3.66133333,32.7633333 Z" id="Shape"></path>
                                </g>
                            </g>
                            <g id="occassional1" transform="translate(0.000000, 15.000000)">
                                <g id="Group">
                                    <path d="M36.3867045,39.6684659 C36.0794318,39.2614773 35.6015341,39.0221591 35.091875,39.0192045 C35.4390341,38.39875 35.6399432,37.6830114 35.6399432,36.9214773 C35.6399432,34.645 33.8716477,32.7865909 31.6365341,32.6292614 C32.0723295,31.9563636 32.3286364,31.1556818 32.3286364,30.2944318 C32.3286364,27.9160227 30.4022727,25.9889205 28.0223864,25.9889205 L27.0880114,25.9889205 C27.5622159,25.2968182 27.8406818,24.4614205 27.8406818,23.5595455 C27.8406818,21.1811364 25.9143182,19.2540341 23.5359091,19.2540341 L20.7482955,19.2540341 L20.7482955,12.8301136 C20.7482955,11.57 19.7267614,10.5492045 18.4666477,10.5492045 C17.2065341,10.5492045 16.1857386,11.57 16.1857386,12.8301136 L16.1857386,19.2540341 L13.3988636,19.2540341 C11.0204545,19.2540341 9.09335227,21.1811364 9.09335227,23.5595455 C9.09335227,24.4614205 9.37181818,25.2975568 9.84528409,25.9889205 L8.91090909,25.9889205 C6.5325,25.9889205 4.60539773,27.9160227 4.60539773,30.2944318 C4.60539773,31.1556818 4.86096591,31.9563636 5.29676136,32.6292614 C3.06017045,32.7851136 1.29335227,34.645 1.29335227,36.9214773 C1.29335227,37.6830114 1.49352273,38.39875 1.84142045,39.0192045 C1.3325,39.0221591 0.853863636,39.2614773 0.547329545,39.6684659 C0.239318182,40.0769318 0.141079545,40.6065341 0.282897727,41.0984659 L6.65659091,63.3255114 C6.85676136,64.0235227 7.49642045,64.5058523 8.22323864,64.5058523 L28.7115341,64.5058523 C29.4383523,64.5058523 30.0780114,64.0272159 30.2781818,63.3255114 L36.651875,41.0984659 C36.7922159,40.6065341 36.6932386,40.0769318 36.3867045,39.6684659 Z M21.5194318,61.2447727 L23.0395455,42.2780682 L27.3546591,42.2780682 L23.9569318,61.2447727 L21.5194318,61.2447727 Z M12.975625,61.2447727 L9.57863636,42.2780682 L13.8922727,42.2780682 L15.4116477,61.2447727 L12.975625,61.2447727 Z M15.8540909,42.2780682 L21.0769886,42.2780682 L19.5576136,61.2447727 L17.3727273,61.2447727 L15.8540909,42.2780682 Z M4.01005682,42.2780682 L7.59318182,42.2780682 L10.9909091,61.2447727 L9.45011364,61.2447727 L4.01005682,42.2780682 Z M27.4824432,61.2447727 L25.9416477,61.2447727 L29.339375,42.2780682 L32.9247159,42.2780682 L27.4824432,61.2447727 Z" id="Shape"></path>
                                    <path d="M18.4659091,8.72034091 C19.7577841,8.72034091 20.8066477,7.67295455 20.8066477,6.37960227 C20.8066477,5.08698864 18.4659091,0.495625 18.4659091,0.495625 C18.4659091,0.495625 16.1251705,5.08698864 16.1251705,6.37886364 C16.1251705,7.67221591 17.1740341,8.72034091 18.4659091,8.72034091 Z" id="Shape"></path>
                                </g>
                            </g>
                        </g>
                    </g>
                </g>
            </g>
        </g>
    </g>
</svg>