<?xml version="1.0" encoding="UTF-8"?>
<svg width="84px" height="80px" viewBox="0 0 84 80" version="1.1" xmlns="http://www.w3.org/2000/svg" xmlns:xlink="http://www.w3.org/1999/xlink">
    <!-- Generator: Sketch 41.2 (35397) - http://www.bohemiancoding.com/sketch -->
    <title>Pilgrim</title>
    <desc>Created with Sketch.</desc>
    <defs></defs>
    <g id="Page-1" stroke="none" stroke-width="1" fill="none" fill-rule="evenodd">
        <g id="Desktop-HD" transform="translate(-786.000000, -5580.000000)">
            <g id="interests" transform="translate(320.000000, 5375.000000)">
                <g id="interests-Row-Copy" transform="translate(0.000000, 170.000000)">
                    <g id="interests-Tabloid-Copy-2" transform="translate(433.333333, 0.000000)">
                        <g id="Pilgrim" transform="translate(33.000000, 35.000000)">
                            <g id="pilgrim1" transform="translate(54.000000, 0.000000)" fill="#6772E5">
                                <g id="Group">
                                    <path d="M28.9958763,27.7443299 L28.9958763,26.5463918 L28.7742268,26.4391753 L28.0448454,26.9489691 C27.8721649,26.9865979 26.2742268,27.3128866 24.3628866,26.2551546 C22.3778351,25.1541237 21.5360825,22.9185567 21.5278351,22.8958763 L21.506701,22.8376289 L21.1530928,22.8376289 L21.1530928,22.4948454 L20.8443299,22.4948454 L20.8443299,17.5494845 L21.9762887,16.6597938 C21.9278351,16.756701 21.8,17.0319588 21.8231959,17.2097938 C21.8438144,17.3675258 22.014433,17.4865979 22.2201031,17.4865979 C22.3494845,17.4865979 22.4747423,17.4386598 22.5726804,17.3510309 C22.8237113,17.1262887 22.6556701,16.7881443 22.6025773,16.6948454 L22.6025773,15.5443299 L22.4814433,15.592268 C22.4773196,15.5938144 22.0592784,15.756701 21.3623711,15.756701 C20.6752577,15.756701 19.5881443,15.5948454 18.3072165,14.8237113 C16.2221649,13.5701031 15.7850515,11.8561856 15.7051546,11.414433 C15.9350515,11.435567 16.1520619,11.4463918 16.3505155,11.4463918 C17.4690722,11.4463918 17.7221649,11.114433 17.7469072,11.0768041 L17.8056701,10.9886598 L17.7087629,10.9463918 C16.6206186,10.4762887 15.9010309,9.73350515 15.771134,9.59329897 C15.7556701,9.14896907 15.4469072,8.98041237 15.2278351,8.94072165 L15.2278351,8.84896907 L15.9840206,8.84896907 L15.9840206,8.23969072 L15.2,8.23969072 L15.2,8.05721649 L15.864433,8.05721649 L15.864433,7.40206186 L15.228866,7.40206186 L15.228866,7.20927835 L15.7365979,7.20927835 L15.7365979,6.64484536 L15.164433,6.64484536 L15.164433,6.3242268 L15.6520619,6.3242268 L15.6520619,5.79793814 L15.1360825,5.79793814 L15.1360825,5.53195876 L15.5515464,5.53195876 L15.5515464,5.02371134 L15.1283505,5.02371134 L15.1283505,4.84123711 L15.4783505,4.84123711 L15.4783505,4.28556701 L15.1108247,4.28556701 L15.1108247,3.94845361 C15.2113402,3.90876289 15.3865979,3.80927835 15.3865979,3.60051546 C15.3865979,3.40515464 15.2360825,3.32371134 15.1108247,3.29896907 L15.1108247,2.1443299 C15.4809278,2.13298969 15.6391753,1.75876289 15.6463918,1.74278351 L15.6685567,1.68865979 L15.0268041,1.03762887 L15.0268041,0.908762887 C15.1082474,0.886597938 15.1835052,0.815463918 15.1835052,0.667525773 C15.1835052,0.489690722 15.0716495,0.42628866 14.9752577,0.42628866 C14.9556701,0.42628866 14.9396907,0.428865979 14.9283505,0.430927835 L14.7783505,0.430927835 C14.7675258,0.428865979 14.7510309,0.42628866 14.7314433,0.42628866 C14.6314433,0.42628866 14.5247423,0.489690722 14.5247423,0.667525773 C14.5247423,0.814948454 14.5994845,0.886082474 14.6798969,0.908247423 L14.6798969,1.03762887 L14.0381443,1.68865979 L14.0603093,1.74278351 C14.0670103,1.75876289 14.2273196,2.13247423 14.5974227,2.14381443 L14.5974227,3.29742268 C14.4721649,3.32216495 14.3216495,3.40360825 14.3216495,3.59896907 C14.3216495,3.80824742 14.4969072,3.90721649 14.5974227,3.94690722 L14.5974227,4.28402062 L14.2298969,4.28402062 L14.2298969,4.83917526 L14.5793814,4.83917526 L14.5793814,5.02164948 L14.1546392,5.02164948 L14.1546392,5.52989691 L14.571134,5.52989691 L14.571134,5.79536082 L14.0536082,5.79536082 L14.0536082,6.32164948 L14.5427835,6.32164948 L14.5427835,6.64226804 L13.9706186,6.64226804 L13.9706186,7.20670103 L14.4783505,7.20670103 L14.4783505,7.39948454 L13.8427835,7.39948454 L13.8427835,8.05515464 L14.5056701,8.05515464 L14.5056701,8.23762887 L13.7226804,8.23762887 L13.7226804,8.84690722 L14.4783505,8.84690722 L14.4783505,8.93865979 C14.2592784,8.97783505 13.9510309,9.14639175 13.935567,9.59123711 C13.8056701,9.73195876 13.0876289,10.4737113 11.9963918,10.9443299 L11.8989691,10.9865979 L11.9582474,11.0752577 C11.9835052,11.1128866 12.2376289,11.4443299 13.3561856,11.4443299 C13.5546392,11.4443299 13.7716495,11.4335052 14.0020619,11.4123711 C13.9221649,11.8541237 13.4845361,13.5685567 11.4,14.8216495 C10.1195876,15.5927835 9.03195876,15.7546392 8.34536082,15.7546392 C7.64845361,15.7546392 7.22989691,15.5917526 7.2257732,15.5902062 L7.10463918,15.542268 L7.10463918,16.6917526 C7.0128866,16.8469072 6.91546392,17.1536082 7.13402062,17.3484536 C7.23195876,17.4360825 7.35721649,17.4840206 7.48659794,17.4840206 C7.69175258,17.4840206 7.86237113,17.3654639 7.88298969,17.207732 C7.90670103,17.0298969 7.77938144,16.7546392 7.73092784,16.6582474 L8.86237113,17.5474227 L8.86237113,22.4927835 L8.55412371,22.4927835 L8.55412371,22.835567 L8.20051546,22.835567 L8.17886598,22.8938144 C8.17061856,22.9159794 7.32938144,25.1520619 5.34329897,26.2530928 C3.43195876,27.3118557 1.83298969,26.9845361 1.66134021,26.9469072 L0.932474227,26.4371134 L0.711340206,26.5443299 L0.711340206,27.742268 C0.613402062,27.806701 0.407731959,27.9814433 0.429896907,28.3020619 C0.456185567,28.6896907 0.901030928,28.8195876 1.15309278,28.8030928 C1.28402062,28.792268 1.44793814,28.6953608 1.55051546,28.5675258 C1.64123711,28.4546392 1.67938144,28.3268041 1.66237113,28.1989691 C1.62886598,27.9407216 1.38350515,27.7195876 1.28556701,27.6412371 L1.29484536,27.4948454 C1.63969072,27.8051546 2.56030928,28.5654639 3.35463918,28.6273196 L3.35463918,29.085567 L3.89536082,29.085567 L3.89536082,41.9190722 L3.49020619,42.2139175 L3.49020619,42.4469072 L2.91958763,42.4469072 L2.91958763,43.0108247 L3.51030928,43.0108247 L3.51030928,46.6840206 C3.37628866,46.7582474 3.04948454,46.9943299 3.04948454,47.5324742 L3.04948454,48.7515464 L2.01546392,48.7515464 L2.01546392,49.8149485 L27.6907216,49.8149485 L27.6907216,48.7525773 L26.6582474,48.7525773 L26.6582474,47.5335052 C26.6582474,46.9953608 26.3309278,46.7592784 26.1969072,46.6850515 L26.1969072,43.0118557 L26.7876289,43.0118557 L26.7876289,42.4484536 L26.2159794,42.4484536 L26.2159794,42.2154639 L25.8123711,41.9206186 L25.8123711,29.0865979 L26.3536082,29.0865979 L26.3536082,28.6283505 C27.1479381,28.5664948 28.0670103,27.8056701 28.4118557,27.4958763 L28.4216495,27.642268 C28.3242268,27.721134 28.0793814,27.942268 28.0453608,28.2 C28.0283505,28.328866 28.0675258,28.456701 28.1582474,28.5690722 C28.2613402,28.6969072 28.4247423,28.7938144 28.556701,28.8041237 C28.5680412,28.8051546 28.5809278,28.8056701 28.5948454,28.8056701 C28.8556701,28.8056701 29.2525773,28.6716495 29.2778351,28.3025773 C29.2984536,27.9835052 29.093299,27.8087629 28.9958763,27.7443299 Z M9.13917526,41.8396907 L8.66907216,42.0979381 L8.66907216,42.4938144 L6.25463918,42.4938144 L6.23092784,42.1618557 L5.86597938,41.9097938 L5.86597938,31.0907216 L8.98402062,31.0907216 L9.13917526,41.8396907 Z M12.4175258,22.4804124 L12.4175258,18.2092784 L17.2871134,18.2092784 L17.2871134,22.4804124 L12.4175258,22.4804124 Z M18.1592784,42.4938144 L11.5561856,42.4938144 L11.5561856,42.114433 L11.2247423,41.7634021 L11.2247423,31.0907216 L18.5324742,31.0907216 L18.5324742,41.8309278 L18.143299,42.1659794 L18.1592784,42.4938144 Z M11.7113402,18.2097938 L11.7113402,22.4809278 L9.44278351,22.4809278 L9.44278351,18.2097938 L11.7113402,18.2097938 Z M20.5654639,41.8396907 L20.7206186,31.0907216 L23.8381443,31.0907216 L23.8381443,41.9103093 L23.4742268,42.1628866 L23.4505155,42.4943299 L21.0360825,42.4943299 L21.0360825,42.0974227 L20.5654639,41.8396907 Z M20.2634021,18.2097938 L20.2634021,22.4809278 L17.993299,22.4809278 L17.993299,18.2097938 L20.2634021,18.2097938 Z" id="Shape"></path>
                                </g>
                            </g>
                            <g id="pilgrim2" transform="translate(0.000000, 30.000000)">
                                <g id="Group">
                                    <g id="Shape">
                                        <path d="M31.9578947,22.8552632 C31.9578947,23.1565789 32.1421053,23.4144737 32.4046053,23.5236842 L32.4046053,25.0427632 C32.4046053,25.1125 32.5328947,25.1697368 32.6921053,25.1703947 C32.8513158,25.1703947 32.9789474,25.1131579 32.9796053,25.0434211 L32.9796053,23.5131579 C33.2309211,23.3993421 33.4065789,23.1493421 33.4065789,22.8552632 C33.4065789,22.7611842 33.3861842,22.6723684 33.3532895,22.5901316 L35.6947368,20.2486842 C35.7907895,20.1526316 35.7789474,19.9842105 35.6657895,19.8717105 C35.5546053,19.7598684 35.3848684,19.7473684 35.2901316,19.8434211 L32.9480263,22.1848684 C32.8657895,22.1526316 32.7769737,22.1309211 32.6835526,22.1309211 C32.2822368,22.1309211 31.9578947,22.4546053 31.9578947,22.8552632 Z"></path>
                                        <polygon points="1.08157895 49.1730263 7.83421053 49.1730263 7.83421053 35.8611842 1.08157895 37.0809211"></polygon>
                                        <path d="M8.53421053,48.9769737 L10.5822368,48.9769737 L10.5822368,42.1052632 C10.5822368,40.6907895 11.7328947,39.5407895 13.1473684,39.5407895 L14.6243421,39.5407895 C16.0388158,39.5407895 17.1894737,40.6907895 17.1894737,42.1052632 L17.1894737,48.9769737 L19.1282895,48.9769737 L19.1289474,48.9769737 L19.1289474,26.7986842 L8.53421053,30.5263158 L8.53421053,48.9769737 Z"></path>
                                        <polygon points="57.9559211 49.1730263 64.7072368 49.1730263 64.7072368 37.0815789 57.9559211 35.8618421"></polygon>
                                        <path d="M46.6611842,48.9769737 L48.5611842,48.9769737 L48.5611842,42.1052632 C48.5611842,40.6907895 49.7111842,39.5407895 51.1256579,39.5407895 L52.6026316,39.5407895 C54.0164474,39.5407895 55.1664474,40.6907895 55.1664474,42.1052632 L55.1664474,48.9769737 L57.2559211,48.9769737 L57.2559211,30.5263158 L46.6611842,26.7986842 L46.6611842,48.9769737 L46.6611842,48.9769737 Z"></path>
                                        <path d="M19.8282895,22.6486842 L19.8282895,48.9776316 L27.2835526,48.9776316 L27.2835526,36.7151316 C27.2835526,34.3467105 29.2105263,32.4197368 31.5796053,32.4197368 L32.7197368,32.4197368 L32.7197368,49.0065789 L33.0697368,49.0065789 L33.0697368,32.4190789 L34.2098684,32.4190789 C36.5776316,32.4190789 38.5046053,34.3460526 38.5046053,36.7144737 L38.5046053,48.9769737 L45.9611842,48.9769737 L45.9611842,22.6480263 L32.8947368,10.7243421 L19.8282895,22.6486842 Z M32.9782895,18.3618421 L32.9782895,17.3381579 C35.7934211,17.4480263 38.0026316,19.8131579 38.1927632,22.5677632 L37.1723684,22.5677632 C37.1019737,22.5677632 37.0460526,22.6953947 37.0460526,22.8546053 C37.0460526,23.0138158 37.1019737,23.1421053 37.1723684,23.1421053 L38.1947368,23.1421053 C38.0039474,25.9631579 35.7921053,28.1763158 32.9690789,28.3644737 L32.9690789,27.3486842 C32.9690789,27.2769737 32.8421053,27.2203947 32.6828947,27.2203947 C32.5236842,27.2203947 32.3953947,27.2769737 32.3953947,27.3486842 L32.3953947,28.3717105 C29.5776316,28.2638158 27.3690789,25.8967105 27.1776316,23.1421053 L28.1921053,23.1421053 C28.2618421,23.1421053 28.3190789,23.0138158 28.3190789,22.8546053 C28.3190789,22.6953947 28.2618421,22.5677632 28.1921053,22.5677632 L27.1677632,22.5677632 C27.2730263,19.7467105 29.6447368,17.5342105 32.4046053,17.3460526 L32.4046053,18.3611842 C32.4046053,18.4309211 32.5328947,18.4881579 32.6914474,18.4881579 C32.8506579,18.4894737 32.9782895,18.4315789 32.9782895,18.3618421 Z"></path>
                                        <path d="M57.9559211,35.1513158 L57.9559211,30.0309211 L46.6611842,26.0578947 L46.6611842,22.3414474 L33.3322368,10.1776316 L33.3322368,4.63881579 L36.5460526,4.63881579 C37.1098684,4.63881579 37.1098684,3.76447368 36.5460526,3.76447368 L33.3322368,3.76447368 L33.3322368,0.550657895 C33.3322368,-0.0131578947 32.4572368,-0.0131578947 32.4572368,0.550657895 L32.4572368,3.76447368 L29.2427632,3.76447368 C28.6789474,3.76447368 28.6789474,4.63881579 29.2427632,4.63881579 L32.4572368,4.63881579 L32.4572368,10.1769737 L19.1282895,22.3407895 L19.1282895,26.0565789 L7.83421053,30.0309211 L7.83421053,35.1513158 L0.382236842,36.4980263 L0.382236842,49.8730263 L65.4072368,49.8730263 L65.4072368,36.4980263 L57.9559211,35.1513158 Z M7.83421053,49.1730263 L1.08157895,49.1730263 L1.08157895,37.0809211 L7.83421053,35.8611842 L7.83421053,49.1730263 Z M19.1289474,48.9769737 L19.1289474,48.9769737 L17.1894737,48.9769737 L17.1894737,42.1052632 C17.1894737,40.6907895 16.0388158,39.5407895 14.6243421,39.5407895 L13.1473684,39.5407895 C11.7328947,39.5407895 10.5822368,40.6907895 10.5822368,42.1052632 L10.5822368,48.9769737 L8.53421053,48.9769737 L8.53421053,30.5263158 L19.1289474,26.7986842 L19.1289474,48.9769737 L19.1289474,48.9769737 Z M45.9611842,48.9769737 L38.5046053,48.9769737 L38.5046053,36.7151316 C38.5046053,34.3460526 36.5769737,32.4197368 34.2098684,32.4197368 L33.0697368,32.4197368 L33.0697368,49.0065789 L32.7197368,49.0065789 L32.7197368,32.4190789 L31.5796053,32.4190789 C29.2105263,32.4190789 27.2835526,34.3467105 27.2835526,36.7144737 L27.2835526,48.9769737 L19.8282895,48.9769737 L19.8282895,22.6480263 L32.8947368,10.7243421 L45.9611842,22.6486842 L45.9611842,48.9769737 Z M57.2559211,48.9769737 L55.1664474,48.9769737 L55.1664474,42.1052632 C55.1664474,40.6907895 54.0164474,39.5407895 52.6026316,39.5407895 L51.1256579,39.5407895 C49.7111842,39.5407895 48.5611842,40.6907895 48.5611842,42.1052632 L48.5611842,48.9769737 L46.6611842,48.9769737 L46.6611842,26.7986842 L57.2559211,30.5263158 L57.2559211,48.9769737 Z M64.7072368,49.1730263 L57.9559211,49.1730263 L57.9559211,35.8618421 L64.7078947,37.0815789 L64.7078947,49.1730263 L64.7072368,49.1730263 Z" fill="#6772E5"></path>
                                        <path d="M32.4052632,18.3618421 L32.4052632,17.3467105 C29.6453947,17.5348684 27.2736842,19.7473684 27.1684211,22.5684211 L28.1927632,22.5684211 C28.2625,22.5684211 28.3197368,22.6960526 28.3197368,22.8552632 C28.3197368,23.0144737 28.2625,23.1427632 28.1927632,23.1427632 L27.1782895,23.1427632 C27.3697368,25.8980263 29.5776316,28.2644737 32.3960526,28.3723684 L32.3960526,27.3486842 C32.3960526,27.2769737 32.5243421,27.2203947 32.6835526,27.2203947 C32.8427632,27.2203947 32.9697368,27.2769737 32.9697368,27.3486842 L32.9697368,28.3638158 C35.7927632,28.1763158 38.0046053,25.9631579 38.1953947,23.1414474 L37.1730263,23.1414474 C37.1026316,23.1414474 37.0467105,23.0131579 37.0467105,22.8539474 C37.0467105,22.6947368 37.1026316,22.5671053 37.1730263,22.5671053 L38.1934211,22.5671053 C38.0032895,19.8118421 35.7947368,17.4473684 32.9789474,17.3375 L32.9789474,18.3611842 C32.9789474,18.4309211 32.8513158,18.4881579 32.6921053,18.4881579 C32.5335526,18.4894737 32.4052632,18.4315789 32.4052632,18.3618421 Z M35.2894737,19.8427632 C35.3848684,19.7467105 35.5539474,19.7592105 35.6651316,19.8710526 C35.7782895,19.9835526 35.7901316,20.1519737 35.6940789,20.2480263 L33.3526316,22.5894737 C33.3855263,22.6717105 33.4059211,22.7605263 33.4059211,22.8546053 C33.4059211,23.1486842 33.2296053,23.3986842 32.9789474,23.5125 L32.9789474,25.0427632 C32.9782895,25.1125 32.8513158,25.1697368 32.6914474,25.1697368 C32.5328947,25.1690789 32.4039474,25.1125 32.4039474,25.0421053 L32.4039474,23.5230263 C32.1421053,23.4138158 31.9572368,23.1559211 31.9572368,22.8546053 C31.9572368,22.4546053 32.2815789,22.1302632 32.6822368,22.1302632 C32.7763158,22.1302632 32.8644737,22.1513158 32.9467105,22.1842105 L35.2894737,19.8427632 Z" fill="#6772E5"></path>
                                    </g>
                                </g>
                            </g>
                        </g>
                    </g>
                </g>
            </g>
        </g>
    </g>
</svg>